<?xml version="1.0" standalone="no"?>
<!DOCTYPE svg PUBLIC "-//W3C//DTD SVG 1.1//EN" "http://www.w3.org/Graphics/SVG/1.1/DTD/svg11.dtd" >
<!--
2013-9-30: Created.
-->
<svg>
<metadata>
Created by iconfont
</metadata>
<defs>

<font id="iconfont" horiz-adv-x="1024" >
  <font-face
    font-family="iconfont"
    font-weight="500"
    font-stretch="normal"
    units-per-em="1024"
    ascent="896"
    descent="-128"
  />
    <missing-glyph />
    
    <glyph glyph-name="x" unicode="x" horiz-adv-x="1001"
d="M281 543q-27 -1 -53 -1h-83q-18 0 -36.5 -6t-32.5 -18.5t-23 -32t-9 -45.5v-76h912v41q0 16 -0.5 30t-0.5 18q0 13 -5 29t-17 29.5t-31.5 22.5t-49.5 9h-133v-97h-438v97zM955 310v-52q0 -23 0.5 -52t0.5 -58t-10.5 -47.5t-26 -30t-33 -16t-31.5 -4.5q-14 -1 -29.5 -0.5
t-29.5 0.5h-32l-45 128h-439l-44 -128h-29h-34q-20 0 -45 1q-25 0 -41 9.5t-25.5 23t-13.5 29.5t-4 30v167h911zM163 247q-12 0 -21 -8.5t-9 -21.5t9 -21.5t21 -8.5q13 0 22 8.5t9 21.5t-9 21.5t-22 8.5zM316 123q-8 -26 -14 -48q-5 -19 -10.5 -37t-7.5 -25t-3 -15t1 -14.5
t9.5 -10.5t21.5 -4h37h67h81h80h64h36q23 0 34 12t2 38q-5 13 -9.5 30.5t-9.5 34.5q-5 19 -11 39h-368zM336 498v228q0 11 2.5 23t10 21.5t20.5 15.5t34 6h188q31 0 51.5 -14.5t20.5 -52.5v-227h-327z" />
    

    
    <glyph glyph-name="che1" unicode="&#58898;" d="M236.033 133.55c-52.684 0-95.551-42.855-95.551-95.528 0-52.691 42.867-95.547 95.551-95.547s95.551 42.856 95.551 95.547c0 52.673-42.867 95.528-95.551 95.528zM1001.548 71.675l-4.704 23.592c-2.572 13.876-9.010 17.693-17.489 21.774h-81.031c16.694-21.979 26.704-49.304 26.704-79.018 0-6.837-0.683-13.509-1.694-20.060h36.479c36.796-0.001 46.5 19.325 41.734 53.711zM793.913 133.55c-52.673 0-95.551-42.855-95.551-95.528 0-52.691 42.877-95.547 95.551-95.547 52.706 0 95.553 42.856 95.553 95.547 0 52.673-42.849 95.528-95.553 95.528zM162.911 146.652c16.915 11.408 36.604 18.935 57.876 21.412h31.97v-0.147c20.684-2.653 39.847-10.142 56.357-21.264h411.442c20.93 14.163 46.174 22.449 73.357 22.449 27.184 0 52.439-8.286 73.378-22.449h99.112l-10.939 60.957c-8.959 37.039-27.622 47.528-77.735 54.162-67.185 8.918-181.889 26.1-181.889 26.1-54.46 40.488-100.469 83.366-183.256 90.752l-5.388 10.815c-0.521 1.062-9.643 25.245-39.367 25.245l-186.659 0c-29.443 0-36.964-16.632-40.107-23.397-2.586-5.571-5.54-11.99-5.54-11.99-87.235-8.224-176.623-95.812-176.603-135.586l0.224-97.058h103.768zM878.445 220.588c3.122 0 34.654 0 50.52 0 2.817-4.552 4.571-9.999 6.205-16.673l6.449-35.917h-25.368c-19.213 0-27.969 5.102-36.153 19.694l-8.958 17.999c-5.46 11.143 3.101 14.897 7.306 14.897zM652.648 277.444l-358.509 0.23 46.609 73.4 132.633-0.061c83.786 0 120.714-27.979 179.266-73.569zM259.87 382.552c2.514 5.417 5.291 11.397 21.3 11.397h186.66c12.893 0 18.204-7.817 20.224-12.478l0.526-1.165 0.219-0.439c-48.617 0-157.010-0.019-230.093 0.165l1.164 2.52zM246.931 351.074l52.49-0.061-46.62-73.338h-75.78v-0.23h-60.712c17.347 25.366 75.674 73.63 130.622 73.63zM79.644 220.588h36.103c9.877 0 17.909-10.612 8.541-22.591-4.194-5.346-24.428-29.836-24.428-29.836h-20.337l0.122 52.426zM54.828 117.040c-5.204-7.427-9.358-15.508-9.623-30.611l-0.123-21.713c0-29.713 23.093-34.183 61.245-44.774-0.817 5.918-1.388 11.938-1.388 18.081 0 29.693 9.877 57.060 26.52 79.018l-76.632-0zM340.504 117.040c16.673-21.958 26.622-49.304 26.622-79.018 0-6.837-0.684-13.488-1.683-20.019l299.083-0.020c-1.011 6.551-1.694 13.203-1.694 20.039 0 29.714 10.010 57.039 26.684 79.018l-349.012 0z"  horiz-adv-x="1024" />

    
    <glyph glyph-name="fangdajing" unicode="&#58883;" d="M430.306908-32.989977c-215.618802 0-391.005298 175.386496-391.005298 391.004275 0 215.618802 175.386496 391.023718 391.005298 391.023718 215.617779 0 391.005298-175.404915 391.005298-391.023718C821.311183 142.395496 645.924687-32.989977 430.306908-32.989977zM430.306908 691.81678c-184.066179 0-333.785086-149.736303-333.785086-333.803505 0-184.066179 149.718907-333.783039 333.785086-333.783039 184.02934 0 333.784062 149.717883 333.784062 333.783039C764.089947 542.080477 614.336248 691.81678 430.306908 691.81678zM930.9083-147.394586c-13.1853 0-26.523073 4.583388-37.328164 13.933337l-209.807447 181.196829c-23.914666 20.639063-26.523073 56.773028-5.885034 80.68974 20.638039 23.916712 56.773028 26.599821 80.688717 5.887081l209.80847-181.197852c23.914666-20.638039 26.524097-56.772005 5.886057-80.690764C962.946994-140.688861 947.00286-147.394586 930.9083-147.394586z"  horiz-adv-x="1024" />

    
    <glyph glyph-name="shangjia" unicode="&#58900;" d="M845.806063 372.16867c0-0.057305 0.00307-0.113587 0.00307-0.170892 0-49.570999-40.185234-89.75521-89.75521-89.75521-0.456395 0-0.906649 0.025583-1.360997 0.031722-0.818645 0.008186-1.63422 0.027629-2.447748 0.057305-0.236384 0.010233-0.474814 0.01535-0.711198 0.026606-40.409338 1.808182-73.848938 30.321586-83.144652 68.310805-2.234901 11.848862-12.633738 20.814048-25.1324 20.814048l-20.11206 0c-12.703323 0-23.239284-9.260921-25.236777-21.399379-9.616008-38.297234-43.814901-66.820871-84.863806-67.791989-0.00921 0-0.017396 0-0.026606-0.001023-0.711198-0.016373-1.417279-0.049119-2.13257-0.049119-0.560772 0-1.11438 0.028653-1.672082 0.038886-0.478907 0.008186-0.955768 0.01842-1.432629 0.033769-0.617054 0.021489-1.234107 0.040932-1.848091 0.074701-1.006933 0.053212-2.007727 0.12689-3.00545 0.212848-0.319272 0.027629-0.639566 0.053212-0.957815 0.084934-1.242294 0.119727-2.476401 0.268106-3.703345 0.437975-0.076748 0.011256-0.153496 0.021489-0.230244 0.031722-36.647665 5.178953-66.178235 32.472576-74.66963 67.945485l-0.011256 0c-2.403746 11.633968-12.706393 20.38119-25.052582 20.38119l-20.11206 0c-12.346189 0-22.648836-8.746198-25.052582-20.38119l-0.019443 0c-7.837502-32.737612-33.583886-58.512648-66.317405-66.361407-0.207731-0.050142-0.413416-0.103354-0.621147-0.151449-1.043772-0.242524-2.095731-0.461511-3.152806-0.667196-0.376577-0.073678-0.75213-0.147356-1.12973-0.215918-0.948605-0.171915-1.90335-0.327458-2.863211-0.468674-0.500397-0.074701-1.001817-0.144286-1.505283-0.210801-0.873903-0.11461-1.750877-0.217964-2.631944-0.306992-0.608867-0.061398-1.220804-0.113587-1.832741-0.162706-0.487094-0.038886-0.977257-0.071631-1.466398-0.102331-1.034563-0.066515-2.072195-0.116657-3.115967-0.148379-0.304945-0.00921-0.60989-0.01535-0.914836-0.021489-0.617054-0.01228-1.230014-0.042979-1.850138-0.042979-49.570999 0-89.75521 40.185234-89.75521 89.75521 0 0.014326 0.001023 0.028653 0.001023 0.042979s-0.001023 0.028653-0.001023 0.042979c0 0.028653 0.001023 0.056282 0.001023 0.084934l-66.912969 0 0 0c0-86.430488 70.065775-156.497287 156.497287-156.497287 49.662073 0 93.91495 23.136953 122.583896 59.214636 28.668946-36.07666 72.921823-59.214636 122.583896-59.214636 49.662073 0 93.91495 23.136953 122.583896 59.214636 28.668946-36.07666 72.921823-59.214636 122.583896-59.214636 86.430488 0 156.497287 70.065775 156.497287 156.497287l0 0L845.806063 372.167646zM845.43665 666.251521 175.994851 666.251521c-36.968983 0-66.944691-29.974685-66.944691-66.943668l0-225.140667c0-36.970006 29.975708-66.943668 66.944691-66.943668L175.994851 565.835508c0 18.500353 14.97097 33.471322 33.471322 33.471322l602.497107 0c18.499329 0 33.472346-14.97097 33.472346-33.471322l0-258.613012c36.968983 0 66.943668 29.973662 66.943668 66.943668L912.379295 599.307853C912.380318 636.276836 882.405633 666.251521 845.43665 666.251521zM819.853995 172.304689l-15.778358 0c-14.128789 0-25.582655-11.453866-25.582655-25.582655l0-7.888667-0.128937 0L778.491958-36.661599 242.93852-36.661599 242.93852 130.943676l0 7.888667 0 7.888667c0 14.128789-11.453866 25.582655-25.582655 25.582655l-15.778358 0c-14.128789 0-25.582655-11.453866-25.582655-25.582655l0-7.888667 0-7.888667L175.994851-70.133945c0-18.500353 14.97097-33.471322 33.471322-33.471322l602.497107 0c18.499329 0 33.472346 14.97097 33.472346 33.471322l-0.122797 198.584847c0.079818 0.820692 0.122797 1.651616 0.122797 2.492774l0 15.778358C845.43665 160.850823 833.982784 172.304689 819.853995 172.304689z"  horiz-adv-x="1024" />

    
    <glyph glyph-name="feiji" unicode="&#59022;" d="M951.822632 708.879388c-2.77623 2.197038-6.570649 2.582825-9.665127 0.949628L69.066517 263.358475c-3.251044-1.670036-5.166673-5.114484-4.88424-8.752338 0.315178-3.638877 2.77623-6.730285 6.255471-7.838525l292.266483-92.89676c3.075035-0.966001 6.396687-0.245593 8.752338 1.90028l404.309302 364.274494-322.81729-382.112768c-1.950422-2.303462-2.618641-5.449106-1.75804-8.347109 0.862647-2.902096 3.110851-5.186116 6.010901-6.066159l324.294944-98.780771c0.844228-0.26606 1.722224-0.387833 2.602268-0.387833 1.544169 0 3.090385 0.404206 4.460592 1.177825 2.146896 1.230014 3.709485 3.28686 4.288676 5.692652L954.985672 699.688052C955.812503 703.115104 954.581466 706.700769 951.822632 708.879388zM552.082392 52.574794l-89.627297 27.574009c-2.706645 0.881067-5.694699 0.352017-7.979742-1.353834-2.301416-1.703805-3.65525-4.394077-3.65525-7.238868l0-169.168887c0-4.006244 2.636037-7.522324 6.502088-8.644891 0.809435-0.229221 1.651616-0.352017 2.495844-0.352017 3.022847 0 5.921873 1.526773 7.590885 4.182252L557.038264 39.16539c1.511423 2.371 1.829671 5.306866 0.843204 7.92653C556.916491 49.727956 554.771641 51.748986 552.082392 52.574794z"  horiz-adv-x="1024" />

    
    <glyph glyph-name="jiubei" unicode="&#59074;" d="M646.167722 548.773923 392.793014 548.773923c-11.971659 0-21.441335-9.29162-21.441335-20.907169l0-111.49842c0-11.613502 9.469676-20.906146 21.441335-20.906146l253.374708 0c11.971659 0 21.441335 9.29162 21.441335 20.906146L667.609057 527.866754C667.609057 539.482303 658.139381 548.773923 646.167722 548.773923zM510.545882 748.184579c-246.762103 0-446.708971-199.946868-446.708971-446.708971S263.783779-145.234387 510.545882-145.234387 957.255877 54.712481 957.255877 301.474584 757.307985 748.184579 510.545882 748.184579zM689.230494 381.168648c0-84.160795-63.253626-153.668869-145.44865-165.104315l0-169.571047c0-10.363022 8.755408-18.940374 19.298532-18.940374l63.074547 0c13.401218 0 24.301476-10.720156 24.301476-23.943318 0-13.045107-10.900258-23.765263-24.301476-23.765263L410.661987-20.15567c-13.401218 0-24.300452 10.720156-24.300452 23.765263 0 13.222139 10.899234 23.943318 24.300452 23.943318l65.220421 0c10.543124 0 19.298532 8.577353 19.298532 18.940374L495.180939 216.063309c-82.195024 11.43647-145.44865 80.944544-145.44865 165.104315l0 150.272515c0 21.084201 17.331737 38.059827 38.774095 38.059827l261.951037 0c21.442358 0 38.774095-16.975627 38.774095-38.059827L689.231517 381.168648z"  horiz-adv-x="1024" />

    
    <glyph glyph-name="hunbanshichangsiyi6868" unicode="&#58922;" d="M908.492 435.963c0 42.691-29.293 78.353-68.721 88.75C800.654 669.537 668.83 776.581 511.992 776.581S223.345 669.537 184.228 524.713c-39.427-10.397-68.721-46.059-68.721-88.75 0-42.706 29.294-78.382 68.721-88.765 23.647-87.529 81.059-161.148 157.544-205.75l27.221-180.059c16.323-87.691 68.456-137.971 143-137.971 72.677 0 128.854 54.338 143.191 139.029l27.045 179c76.484 44.602 133.896 118.221 157.543 205.75C879.199 357.581 908.492 393.257 908.492 435.963zM816.479 406.566 207.522 406.566c-16.177 0-29.338 13.191-29.338 29.397 0 16.191 13.162 29.368 29.338 29.368l608.957 0c16.176 0 29.338-13.176 29.338-29.368C845.816 419.757 832.654 406.566 816.479 406.566zM511.992 713.831c120.736 0 223.338-77.75 261.397-185.75L250.61 528.081C288.684 636.081 391.287 713.831 511.992 713.831zM593.316-27.609c-3.427-20.236-19.427-86.221-81.324-86.221-53.926 0-74.014 47.16-81.22 85.66l-21.088 139.59c32.324-10.25 66.617-16.089 102.308-16.089 35.707 0 70 5.839 102.324 16.089L593.316-27.609zM511.992 158.081c-120.706 0-223.308 77.735-261.382 185.75l522.78 0C735.33 235.816 632.729 158.081 511.992 158.081z"  horiz-adv-x="1024" />

    
    <glyph glyph-name="icon-yxj-empty-discover" unicode="&#58888;" d="M512-128c-282.112 0-512 229.888-512 512s229.888 512 512 512 512-229.888 512-512-229.888-512-512-512zM512 849.408c-256.512 0-465.408-208.896-465.408-465.408s208.896-465.408 465.408-465.408 465.408 208.896 465.408 465.408-208.896 465.408-465.408 465.408zM222.72 76.288c-6.144 0-11.776 2.56-16.384 6.656-6.656 6.656-8.704 17.408-4.608 26.112l180.736 398.336c2.56 5.12 6.656 9.216 11.776 11.776l398.336 180.736c8.704 4.096 19.456 2.048 26.112-4.608s8.704-17.408 4.608-26.112l-180.736-398.336c-2.56-5.12-6.656-9.216-11.776-11.776l-398.336-180.736c-3.584-1.024-6.656-2.048-9.728-2.048zM420.864 480.256l-151.552-333.824 333.824 151.552 151.552 333.824-333.824-151.552zM511.488 328.192c-16.896 0-33.28 6.656-45.056 18.944-25.088 25.088-25.088 65.536 0 90.624 24.064 24.064 66.56 24.064 90.624 0 25.088-25.088 25.088-65.536 0-90.624-12.288-12.288-28.16-18.944-45.568-18.944zM511.488 421.376c-7.68 0-14.848-3.072-20.48-8.704-11.264-11.264-11.264-29.696 0-40.96 10.752-10.752 30.208-10.752 40.96 0 11.264 11.264 11.264 29.696 0 40.96-5.12 5.632-12.8 8.704-20.48 8.704z"  horiz-adv-x="1024" />

    
    <glyph glyph-name="baozhuanhuan" unicode="&#58991;" d="M914.286-128h-804.571c-53.638 0-97.524 43.886-97.524 97.524l73.143 585.143c0 53.638 43.886 97.524 97.524 97.524h73.143c7.314 136.533 117.029 243.81 256 243.81s248.686-107.276 256-243.81h73.143c53.638 0 97.524-43.886 97.524-97.524l73.143-585.143c-0-53.638-43.886-97.524-97.524-97.524zM512 847.238c-109.714 0-199.924-85.333-207.238-195.048h414.476c-7.314 109.714-97.524 195.048-207.238 195.048zM889.905 554.667c0 26.819-21.943 48.762-48.762 48.762l-658.286-0c-26.819 0-48.762-21.943-48.762-48.762l-12.19-90.21c39.010-46.324 158.476-182.857 307.2-219.429 9.752 36.571 41.448 63.39 82.895 63.39 36.571 0 68.267-24.381 80.457-58.514 143.848 43.886 268.19 170.667 307.2 214.552l-9.752 90.21zM475.429 225.524c0-19.505 17.067-36.571 36.571-36.571s36.571 17.067 36.571 36.571c0 19.505-17.067 36.571-36.571 36.571s-36.571-17.067-36.571-36.571zM909.41 401.067c-53.638-53.638-175.543-163.352-314.514-199.924-9.752-36.571-43.886-60.952-80.457-60.952-36.571 0-68.267 21.943-80.457 56.076-170.667 31.695-292.571 175.543-316.952 207.238l-56.076-433.981c0-26.819 21.943-48.762 48.762-48.762h804.571c26.819 0 48.762 21.943 48.762 48.762l-53.638 431.543z"  horiz-adv-x="1024" />

    
    <glyph glyph-name="1" unicode="&#59027;" d="M756.574786 493.529579c-22.697955 0-36.762275-20.160155-36.762275-20.160155l0-76.437903c0-95.016027-77.025281-172.042331-172.042331-172.042331L476.22982 224.889189c-95.01705 0-172.042331 77.025281-172.042331 172.042331l0 76.437903c0 0-9.55461 20.160155-38.220487 20.160155-28.662807 0-37.47859-20.160155-37.47859-20.160155l0-76.437903c0-135.909389 110.013603-246.591211 245.663072-247.714801l0-121.344672-94.858438 0c-17.923208 0-32.454156-16.945951-32.454156-37.849026s14.530948-37.849026 32.454156-37.849026l265.412882 0c17.925255 0 32.454156 16.945951 32.454156 37.849026s-14.528901 37.849026-32.454156 37.849026l-94.856391 0L549.849538 149.216719c135.648446 1.12359 245.662049 111.805412 245.662049 247.714801l0 76.437903C795.511587 473.369424 779.272741 493.529579 756.574786 493.529579zM642.611222 746.042663c0.041956-0.063445 0.082888-0.12689 0.124843-0.190335C642.694109 745.915773 642.653177 745.980241 642.611222 746.042663zM633.599987 758.192378 633.599987 758.192378c0.019443-0.024559 0.037862-0.049119 0.058328-0.073678C633.638873 758.142236 633.61943 758.167818 633.599987 758.192378zM639.706055 750.231055c0.021489-0.031722 0.046049-0.063445 0.068562-0.095167C639.752104 750.168634 639.727545 750.199333 639.706055 750.231055zM668.828326 667.870256M633.598964 758.192378c-28.810163 35.17922-72.582085 57.633628-121.599476 57.633628-86.766133 0-157.101037-70.335928-157.101037-157.101037l0-229.884714c0-86.761016 70.335928-157.098991 157.101037-157.098991 86.763063 0 157.100014 70.337975 157.100014 157.098991L669.099503 577.548134l-27.525913 0c-9.502421 0-17.204847 7.702426-17.204847 17.204847 0 9.501398 7.701402 17.203824 17.204847 17.203824l27.525913 0 0 38.709627L603.181187 650.666432c-9.502421 0-17.204847 7.702426-17.204847 17.203824 0 9.502421 7.701402 17.204847 17.204847 17.204847l63.705927 0c0 0-0.369414 4.122901 0 0-1.752924 19.672038-5.924943 28.083615-11.855002 38.709627 0.76748-1.376347 0 0 0 0l-84.538395 0c-9.502421 0-17.204847 7.702426-17.204847 17.204847 0 9.501398 7.701402 17.204847 17.204847 17.204847L633.598964 758.194424M652.637576 728.785627"  horiz-adv-x="1024" />

    
    <glyph glyph-name="che1-copy" unicode="&#58884;" d="M236.033 229.55c-52.684 0-95.551-42.855-95.551-95.528 0-52.691 42.867-95.547 95.551-95.547s95.551 42.856 95.551 95.547c0 52.673-42.867 95.528-95.551 95.528zM1001.548 167.675l-4.704 23.592c-2.572 13.876-9.010 17.693-17.489 21.774h-81.031c16.694-21.979 26.704-49.304 26.704-79.018 0-6.837-0.683-13.509-1.694-20.060h36.479c36.796-0.001 46.5 19.325 41.734 53.711zM793.913 229.55c-52.673 0-95.551-42.855-95.551-95.528 0-52.691 42.877-95.547 95.551-95.547 52.706 0 95.553 42.856 95.553 95.547 0 52.673-42.849 95.528-95.553 95.528zM162.911 242.652c16.915 11.408 36.604 18.935 57.876 21.412h31.97v-0.147c20.684-2.653 39.847-10.142 56.357-21.264h411.442c20.93 14.163 46.174 22.449 73.357 22.449 27.184 0 52.439-8.286 73.378-22.449h99.112l-10.939 60.957c-8.959 37.039-27.622 47.528-77.735 54.162-67.185 8.918-181.889 26.1-181.889 26.1-54.46 40.488-100.469 83.366-183.256 90.752l-5.388 10.815c-0.521 1.062-9.643 25.245-39.367 25.245l-186.659 0c-29.443 0-36.964-16.632-40.107-23.397-2.586-5.571-5.54-11.99-5.54-11.99-87.235-8.224-176.623-95.812-176.603-135.586l0.224-97.058h103.768zM878.445 316.588c3.122 0 34.654 0 50.52 0 2.817-4.552 4.571-9.999 6.205-16.673l6.449-35.917h-25.368c-19.213 0-27.969 5.102-36.153 19.694l-8.958 17.999c-5.46 11.143 3.101 14.897 7.306 14.897zM652.648 373.444l-358.509 0.23 46.609 73.4 132.633-0.061c83.786 0 120.714-27.979 179.266-73.569zM259.87 478.552c2.514 5.417 5.291 11.397 21.3 11.397h186.66c12.893 0 18.204-7.817 20.224-12.478l0.526-1.165 0.219-0.439c-48.617 0-157.010-0.019-230.093 0.165l1.164 2.52zM246.931 447.074l52.49-0.061-46.62-73.338h-75.78v-0.23h-60.712c17.347 25.366 75.674 73.63 130.622 73.63zM79.644 316.588h36.103c9.877 0 17.909-10.612 8.541-22.591-4.194-5.346-24.428-29.836-24.428-29.836h-20.337l0.122 52.426zM54.828 213.040c-5.204-7.427-9.358-15.508-9.623-30.611l-0.123-21.713c0-29.713 23.093-34.183 61.245-44.774-0.817 5.918-1.388 11.938-1.388 18.081 0 29.693 9.877 57.060 26.52 79.018l-76.632-0zM340.504 213.040c16.673-21.958 26.622-49.304 26.622-79.018 0-6.837-0.684-13.488-1.683-20.019l299.083-0.020c-1.011 6.551-1.694 13.203-1.694 20.039 0 29.714 10.010 57.039 26.684 79.018l-349.012 0z"  horiz-adv-x="1024" />

    
    <glyph glyph-name="feiji1" unicode="&#59045;" d="M972.8 696.32l-921.6-215.04 167.936-159.744 648.192 320.512L281.6 259.072l0-187.392 94.208 93.184 94.208-93.184L972.8 696.32zM972.8 696.32"  horiz-adv-x="1024" />

    
    <glyph glyph-name="ch" unicode="&#58896;" d="M-285.861098 33.176866l0 0 0 0 0 0 0 0ZM494.879576 444.777225l106.912985 0c6.418176 0 11.622712 5.203512 11.622712 11.622712 0 6.418176-5.204535 11.621688-11.622712 11.621688L494.879576 468.021625c-6.417153 0-11.621688-5.203512-11.621688-11.621688C483.257887 449.980737 488.462422 444.777225 494.879576 444.777225zM352.220459 387.567245l249.572102 0c6.418176 0 11.622712 5.203512 11.622712 11.622712 0 6.4192-5.204535 11.622712-11.621688 11.622712L352.220459 410.812669c-6.418176 0-11.622712-5.203512-11.622712-11.622712C340.596723 392.771781 345.801259 387.567245 352.220459 387.567245zM494.879576 501.986181l106.912985 0c6.418176 0 11.622712 5.204535 11.622712 11.622712s-5.204535 11.622712-11.622712 11.622712L494.879576 525.231605c-6.417153 0-11.621688-5.203512-11.621688-11.622712S488.462422 501.986181 494.879576 501.986181zM494.879576 559.195138l106.912985 0c6.418176 0 11.622712 5.202489 11.622712 11.622712 0 6.4192-5.204535 11.622712-11.622712 11.622712L494.879576 582.440561c-6.417153 0-11.621688-5.203512-11.621688-11.622712C483.257887 564.397626 488.462422 559.195138 494.879576 559.195138zM352.220459 324.124308l106.911962 0c6.418176 0 11.621688 5.203512 11.621688 11.621688s-5.203512 11.621688-11.621688 11.621688L352.220459 347.367685c-6.418176 0-11.622712-5.203512-11.622712-11.621688S345.801259 324.124308 352.220459 324.124308zM510.713192 832.464965c-247.682056 0-448.465988-200.783932-448.465988-448.464965 0-247.680009 200.783932-448.464965 448.465988-448.464965 247.680009 0 448.463941 200.784956 448.463941 448.464965C959.177134 631.681032 758.393201 832.464965 510.713192 832.464965zM307.891857 477.145423l92.882434 130.707924c6.733355 9.474792 12.240789 7.716752 12.240789-3.90596l-0.001023 0 0-122.896005c0-11.622712-9.509585-21.131273-21.131273-21.131273l-75.100442 0C305.15963 459.92011 301.158503 467.671655 307.891857 477.145423zM345.744977 150.467199c-30.992875 0-56.351426 25.358551-56.351426 56.351426L289.393551 396.777001c2.12029 43.075051 41.797965 45.434795 48.202838 45.533033l60.618613 0c8.337899 0.352017 32.371268 4.064572 32.371268 35.18229l0.037862 0L430.624133 602.560808c2.290159 31.784914 27.182083 36.278251 37.250392 36.786835l145.849786 0c30.993898 0 56.351426-25.357528 56.352449-56.351426l0-164.538427L467.605396 215.301833l-22.030759-64.834634L345.744977 150.467199zM524.558525 145.097912l-33.94409-13.530155c-7.197936-2.869351-17.242709-1.062192-22.320355 4.01443-5.077645 5.078669-7.126304 15.211447-4.554736 22.520923l12.534478 35.599799c2.573615 7.309476 9.162684 8.804527 14.642488 3.326768l36.766368-36.755112C533.162484 154.796808 531.756461 147.968286 524.558525 145.097912zM670.077783 206.818625c0-30.992875-25.357528-56.351426-56.351426-56.351426l-51.977815 0 108.329241 110.763686L670.077783 206.818625zM726.907093 339.719494 555.614845 168.444643c-5.478781-5.478781-14.443967-5.478781-19.923772 0l-37.438681 37.438681c-5.478781 5.478781-5.478781 14.443967 0.001023 19.922748L669.545664 397.083993c5.478781 5.478781 14.443967 5.478781 19.923772-0.001023l37.437657-37.438681C732.385874 354.164484 732.385874 345.199299 726.907093 339.719494zM459.13242 290.160775 352.220459 290.160775c-6.418176 0-11.622712-5.203512-11.622712-11.622712 0-6.417153 5.204535-11.620665 11.622712-11.620665l106.911962 0c6.418176 0 11.621688 5.203512 11.621688 11.620665C470.754109 284.957263 465.550597 290.160775 459.13242 290.160775z"  horiz-adv-x="1024" />

    
    <glyph glyph-name="xinxi" unicode="&#58937;" d="M338.736355 52.546477l185.288786 176.481641c14.226927 13.888191 37.599735 13.888191 51.826662 0 14.226927-13.888191 14.226927-35.906054 0-49.794244l-185.288786-176.481641c-14.226927-13.888191-37.599735-13.888191-51.826662 0C324.509428 16.301687 324.509428 38.658286 338.736355 52.546477zM695.764472 485.112802l74.860734 0.338736c20.324181 0 36.583526-15.581872 36.583526-35.228581 0-19.307972-16.598081-35.228581-36.583526-35.228581l-74.860734-0.338736c-20.324181 0-36.583526 15.581872-36.583526 35.228581C658.84221 469.192193 675.440291 485.112802 695.764472 485.112802zM512.169368 485.112802l74.860734 0.338736c20.324181 0 36.583526-15.581872 36.583526-35.228581 0-19.307972-16.598081-35.228581-36.583526-35.228581l-74.860734-0.338736c-20.324181 0-36.583526 15.581872-36.583526 35.228581C475.247106 469.192193 491.845187 485.112802 512.169368 485.112802zM328.574264 485.112802l74.860734 0.338736c20.324181 0 36.583526-15.581872 36.583526-35.228581 0-19.307972-16.598081-35.228581-36.583526-35.228581L328.574264 414.65564c-20.324181 0-36.583526 15.581872-36.583526 35.228581C291.652001 469.192193 308.250083 485.112802 328.574264 485.112802zM953.542838 671.756533c-5.419782 33.534899-35.567317 59.617598-72.150844 59.617598L216.113794 731.035395c-38.954681-1.693682-69.779689-32.179954-70.118425-69.779689l0.338736-425.114125c1.693682-37.260999 33.534899-67.069798 73.167053-67.069798l38.954681 0 0-0.338736 108.395633 0.338736c20.324181 0 36.583526 15.581872 36.583526 35.228581 0 19.307972-16.598081 35.228581-36.583526 35.228581L260.826993 239.190208c-32.51869 1.693682-39.97089 8.468409-41.325835 36.24479L219.162421 632.463116c2.709891 19.307972 10.500827 26.082699 33.534899 28.115117l592.449884 0.338736c24.050281-1.693682 32.179954-8.468409 34.889845-31.502481l0.338736-359.399272c-2.371154-23.372808-10.500827-29.470063-35.567317-31.163745L548.752894 238.851472c-20.324181 0-36.583526-15.581872-36.583526-35.228581 0-19.307972 16.598081-35.228581 36.583526-35.228581l293.345683 0.338736 0 0 38.954681 0c37.938472 0 68.424744 27.437645 72.48958 62.666226L953.542838 671.756533z"  horiz-adv-x="1064" />

    
    <glyph glyph-name="nvxingzuichun" unicode="&#58905;" d="M213.914426 432.575809s60.528497-15.128475 147.539731 128.626096c0 0 77.554417 104.038371 147.539731-24.587725 0 0 37.832135 73.792367 94.57912 64.320954 0 0 32.156828 5.663144 79.442132-68.10733 0 0 60.054135-103.089648 126.731083-93.159686 0 0-58.165204-204.2855-228.402513-231.240167 0.001216 0.001216-261.03127-80.862783-367.429284 224.147858zM448.466607 390.958515s52.969124 20.808647 124.843369 0c0 0 22.692713-15.128475-61.478435-18.913635-0.001216 0-72.822967-3.783943-63.364934 18.913635z"  horiz-adv-x="1024" />

    
    <glyph glyph-name="bao" unicode="&#58887;" d="M954.084-83.627H75.207l-3.584 16.84c-10.809 50.232-102.172 493.624 5.746 601.6 75.207 75.263 254.18 123.847 455.907 123.847 199.453 0 356.41-46.934 419.897-125.554 95.005-117.362 13.881-550.514 4.324-599.552l-3.413-17.18zM109.852-40.96h809.074c25.543 139.492 68.04 464.555 1.138 547.271-54.67 67.641-202.809 109.682-386.73 109.682-188.075 0-359.083-44.772-425.7-111.389-74.525-74.41-26.51-404.024 2.218-545.564zM62.009 162.702h899.925v-42.666H62.01v42.666zM725.106 413.07h-42.667V646.03c0 89.885-73.102 162.93-162.987 162.93-89.884 0-162.986-73.102-162.986-162.93v-232.96h-42.667V646.03c0 113.38 92.274 205.597 205.653 205.597s205.654-92.274 205.654-205.597v-232.96z"  horiz-adv-x="1024" />

    
    <glyph glyph-name="pinpaicehua" unicode="&#59107;" d="M517.948991 57.991018c-3.435239 1.915629-9.05933 1.915629-12.494569 0L302.568618-55.96436c-3.421936-1.937119-9.038864-1.937119-12.466939 0L70.211597 67.544605c-3.414773 1.951445-6.229888 6.724145-6.229889 10.66899V325.182406c0 3.930519 2.815115 8.717546 6.229889 10.647501l202.886826 113.976868c3.435239 1.929955 6.244214 6.738471 6.244215 10.667967V690.239729c0 3.937682 2.815115 8.731872 6.250354 10.668991L505.454422 824.439174c3.435239 1.951445 9.05933 1.951445 12.494569 0l219.86143-123.530454c3.429099-1.937119 6.244214-6.731308 6.244214-10.668991v-229.763964c0-3.929496 2.815115-8.738012 6.250354-10.667967l202.873524-113.976867c3.428076-1.930979 6.244214-6.716982 6.244214-10.647501v-246.969835c0-3.943822-2.816139-8.717546-6.244214-10.66899L733.302757-55.96436c-3.428076-1.937119-9.052167-1.937119-12.479219 0L517.948991 57.991018z m232.357022 137.606031c-3.435239-1.922792-6.250354-6.716982-6.250355-10.661827v-189.423187c0-3.930519 2.815115-5.560646 6.250355-3.630691l168.867012 94.833879c3.442402 1.923816 6.257517 6.738471 6.257517 10.668991V286.820704c0 3.943822-2.815115 5.567809-6.244214 3.645016l-168.880315-94.868671z m-652.332119-98.213859c0-3.930519 2.807952-8.745175 6.26468-10.66899l168.859849-94.833879c3.435239-1.929955 6.244214-0.299829 6.244215 3.630691v189.42421c0 3.943822-2.807952 8.739035-6.244215 10.661827L104.218108 290.46572c-3.435239 1.923816-6.244214 0.299829-6.244214-3.645016v-189.437514z m430.720835 0c0-3.930519 2.807952-8.745175 6.244214-10.66899l168.873152-94.833879c3.449565-1.929955 6.250354-0.299829 6.250355 3.630691v189.42421c0 3.943822-2.800789 8.739035-6.237052 10.661827l-168.886455 94.868671c-3.435239 1.923816-6.244214 0.299829-6.244214-3.645016v-189.437514z m-209.116715 98.213859c-3.435239-1.922792-6.244214-6.716982-6.244214-10.661827v-189.423187c0-3.930519 2.807952-5.560646 6.257517-3.630691l168.874175 94.833879c3.428076 1.923816 6.244214 6.738471 6.244215 10.668991V286.820704c0 3.943822-2.816139 5.567809-6.244215 3.645016l-168.887478-94.868671zM551.934013 326.255855c-3.434216-1.923816-3.434216-5.101181 0-7.031137l168.888501-94.875835c3.428076-1.916653 9.052167-1.916653 12.479219 0l168.895665 94.875835c3.428076 1.929955 3.428076 5.107321 0 7.031137l-168.874175 94.820575c-3.448542 1.929955-9.072633 1.929955-12.500709 0L551.934013 326.255855z m-430.719812 0c-3.435239-1.923816-3.435239-5.101181 0-7.031137l168.887478-94.875835c3.429099-1.916653 9.045003-1.916653 12.466939 0l168.894642 94.875835c3.442402 1.929955 3.442402 5.107321 0 7.031137l-168.881339 94.820575c-3.435239 1.929955-9.052167 1.929955-12.500708 0L121.214201 326.255855z m413.724742 234.43331c-3.435239-1.922792-6.244214-6.710842-6.244214-10.661828v-189.479468c0-3.930519 2.807952-5.561669 6.244214-3.630691l168.887479 94.855368c3.435239 1.937119 6.237051 6.724145 6.237051 10.654664V651.934309c0 3.923356-2.800789 5.567809-6.237051 3.623527l-168.887479-94.868671z m-221.60412-98.261955c0-3.930519 2.807952-8.717546 6.244214-10.654664l168.888502-94.855368c3.428076-1.930979 6.244214-0.299829 6.244214 3.630691V550.027337c0 3.950985-2.816139 8.739035-6.244214 10.661828l-168.888502 94.868671c-3.435239 1.944282-6.244214 0.299829-6.244214-3.623527v-189.507099z m23.288402 228.836849c-3.449565-1.909489-3.449565-5.073552 0-7.010671l168.83222-94.820575c3.435239-1.929955 9.05933-1.929955 12.494569 0l168.83222 94.820575c3.448542 1.937119 3.448542 5.100158 0 7.010671L517.948991 786.160359c-3.435239 1.923816-9.05933 1.923816-12.494569 0L336.623225 691.264059z"  horiz-adv-x="1024" />

    
    <glyph glyph-name="shangjia1" unicode="&#58936;" d="M536.576 263.68c-65.536 0-118.784 28.672-144.896 77.824H368.64c-28.16-47.616-81.408-77.824-138.752-77.824-88.064 0-159.744 68.608-159.744 153.6 0 2.56 0 7.168 57.344 272.896 1.024 55.296 48.128 99.328 105.472 99.328h576.512c57.344 0 104.448-44.544 105.472-99.328 59.392-265.728 59.392-269.824 59.392-272.896 0-87.552-65.024-153.088-151.04-153.088-54.272 0-97.792 26.624-125.952 77.824h-22.016c-28.16-48.128-81.408-78.336-138.752-78.336z m-193.024 118.784h74.752l5.12-12.8c16.896-40.96 59.392-65.536 113.152-65.536 46.592 0 89.088 26.112 108.032 66.56l5.632 11.776h72.704l5.632-11.776c20.992-44.544 52.224-66.048 95.232-66.048 63.488 0 109.056 46.592 110.08 110.592-3.072 16.896-36.352 167.936-58.88 267.264l-0.512 2.048v2.048c0 33.792-29.184 60.928-64.512 60.928H232.96c-35.84 0-64.512-27.136-64.512-60.928v-2.048l-0.512-2.048c-21.504-99.84-53.76-250.88-56.832-267.776 1.024-61.44 53.76-111.104 118.784-111.104 46.592 0 89.088 26.112 108.032 66.56l5.632 12.288z m589.824 34.304z m-822.272 0zM831.488-34.304H212.992c-52.736 0-93.696 40.96-93.696 92.672v165.888c0 11.264 9.216 20.48 20.48 20.48s20.48-9.216 20.48-20.48v-165.888c0-29.696 22.528-51.712 52.736-51.712h618.496c29.184 0 52.736 20.992 52.736 46.592v168.448c0 11.264 9.216 20.48 20.48 20.48s20.48-9.216 20.48-20.48v-168.448c0-48.128-41.984-87.552-93.696-87.552zM779.776 504.32H288.768c-11.264 0-20.48 9.216-20.48 20.48s9.216 20.48 20.48 20.48h491.008c11.264 0 20.48-9.216 20.48-20.48s-9.216-20.48-20.48-20.48z"  horiz-adv-x="1024" />

    
    <glyph glyph-name="xinxi1" unicode="&#59126;" d="M833.336566 671.86422L190.663434 671.86422c-40.60479 0-73.639161-33.041534-73.639161-73.639161l0-428.448072c0-40.59865 33.034371-73.639161 73.639161-73.639161l642.672108 0c40.60479 0 73.639161 33.041534 73.639161 73.639161l0 428.448072C906.975726 638.822686 873.941356 671.86422 833.336566 671.86422zM620.958574 388.297886l238.356666 231.004211c4.680603-5.758144 7.492648-13.093203 7.492648-21.077038l0-428.448072c0-7.264451-2.332115-13.989619-6.27696-19.48068L620.958574 388.297886zM833.336566 631.697405c0.099261 0 0.197498-0.007163 0.297782-0.007163L593.909521 399.365966c-0.582261-0.419556-1.14508-0.876973-1.667989-1.400906-0.408299-0.411369-0.772596-0.848321-1.115404-1.296529l-79.127152-76.68452-79.104639 76.66303c-0.347924 0.455371-0.717338 0.899486-1.131777 1.318018-0.538259 0.541329-1.11745 1.013073-1.718131 1.443885L190.366675 631.689219c0.099261 0.001023 0.197498 0.007163 0.296759 0.007163L833.336566 631.696382zM163.468049 150.295284c-3.944845 5.492084-6.27696 12.216229-6.27696 19.48068l0 428.448072c0 7.983835 2.812045 15.318894 7.492648 21.077038l238.360759-231.007281L163.468049 150.295284zM190.663434 136.303618c-1.062192 0-2.111081 0.055259-3.14769 0.152473l234.752582 233.207389 80.415494-77.935c2.595105-2.523473 5.955642-3.77907 9.31618-3.77907 3.360538 0 6.721075 1.255597 9.31618 3.77907l80.418564 77.93807 234.749512-233.210459c-1.036609-0.097214-2.085498-0.152473-3.14769-0.152473L190.663434 136.303618z"  horiz-adv-x="1024" />

    
    <glyph glyph-name="xinxi2" unicode="&#58885;" d="M712.695417 513.636522L311.030337 513.636522c-18.500353 0-33.472346-14.97097-33.472346-33.472346s14.971993-33.471322 33.472346-33.471322L712.695417 446.692854c18.502399 0 33.471322 14.969946 33.471322 33.471322S731.197816 513.636522 712.695417 513.636522zM712.695417 647.524882L311.030337 647.524882c-18.500353 0-33.472346-14.97097-33.472346-33.472346 0-18.500353 14.971993-33.472346 33.472346-33.472346L712.695417 580.580191c18.502399 0 33.471322 14.971993 33.471322 33.472346C746.166739 632.553912 731.197816 647.524882 712.695417 647.524882zM880.055099 250.268206L880.055099 714.469574c0 36.968983-29.971615 66.943668-66.943668 66.943668L210.6133 781.413242c-36.96796 0-66.943668-29.974685-66.943668-66.943668l0-669.441798c0-36.97103 29.975708-66.944691 66.943668-66.944691L605.452927-21.916916c10.642384-2.174526 22.135136 0.861624 30.394241 9.119705l234.730069 234.729046C878.306268 229.662913 881.464191 240.223433 880.055099 250.268206zM645.750725 91.770356L645.750725 212.388481l120.619148 0L645.750725 91.770356zM813.11143 279.333172L612.278379 279.333172c-18.499329 0-33.471322-14.971993-33.471322-33.473369 0-0.060375 0.004093-0.119727 0.005117-0.180102-0.001023-0.060375-0.005117-0.119727-0.005117-0.180102l0-200.471824L244.085646 45.027775c-18.499329 0-33.472346 14.969946-33.472346 33.471322L210.6133 680.997228c0 18.500353 14.973016 33.472346 33.472346 33.472346l535.552415 0c18.502399 0 33.472346-14.971993 33.472346-33.472346L813.110407 279.333172z"  horiz-adv-x="1024" />

    
    <glyph glyph-name="shouye" unicode="&#58893;" d="M810.706661 78.192106c0-15.824407-3.744277-27.300786-11.253298-34.382065-11.250228-10.414187-28.947286-10.191106-30.841426-9.987469H627.788631V224.430748c0.203638 4.799306-0.812505 23.150256-17.903765 40.422641-19.99745 20.629853-53.747111 31.04711-100.214423 31.04711-47.078225 0-81.46029-10.211573-101.437273-30.619368-16.479323-16.682961-17.720593-34.178427-17.720594-38.32691v-193.130625H238.237451c-16.888645 0-22.096251 6.042623-23.76424 7.91425-8.118911 8.951883-7.91425 26.447349-7.283893 31.878034l0.203638 1.670036V395.485589c0 15.419178-12.694113 27.910677-28.318976 27.910676h-12.511965L509.263168 724.838735l349.149005-300.404837-20.201088-0.630357c-15.626909-0.407276-27.933189-13.325493-27.504424-28.745694v-316.865741z m-230.401484-44.36851H438.220135V225.894076l0.204661 0.63138c0.426719 1.240247 1.464351 3.337002 3.743254 5.63637 4.801353 5.003967 21.26021 16.437367 67.502393 16.437368 39.588647 0 56.67786-8.950859 63.553455-14.364149 5.820566-4.595668 6.875594-8.949836 7.080256-10.006912v-190.404537z m369.777835 385.830439L527.592628 783.370827c-10.618848 9.174963-26.670429 9.174963-37.289278-0.204662L73.446267 416.318056c-8.544607-7.710612-11.67797-20.018939-7.506974-30.844495 3.966335-10.82044 14.588253-18.105357 26.264177-18.105357h58.734706v-288.340057c-1.24127-10.191106-3.112897-46.874587 20.629853-73.951269 10.842952-12.491499 31.247678-27.100218 66.669422-27.100218h527.486716l4.15053-0.202615c12.71458 0 43.535539 2.52245 67.705008 24.799826 13.550621 12.512988 29.579689 35.622312 29.579689 75.823919V368.589009l65.225537 1.893116c11.656481 0.425695 21.850657 7.709589 25.814945 18.534122 3.967358 10.819416 0.833995 23.131837-8.116864 30.637788z"  horiz-adv-x="1024" />

    
    <glyph glyph-name="maikefeng" unicode="&#58985;" d="M814.08 395.264c0 12.288-10.24 22.528-22.528 22.528s-22.528-10.24-22.528-22.528c0-140.288-113.664-253.952-253.952-253.952-140.288 0-253.952 113.664-253.952 253.952 0 12.288-10.24 22.528-22.528 22.528s-22.528-10.24-22.528-22.528c0-2.048 0.512-9.216 0.512-9.728 5.12-155.136 128.512-280.576 283.136-288.256v-180.224h-112.128c-12.288 0-22.528-10.24-22.528-22.528s10.24-22.528 22.528-22.528h268.8c12.288 0 22.528 10.24 22.528 22.528s-10.24 22.528-22.528 22.528h-112.128v180.736c147.456 14.848 263.168 137.216 268.288 287.232 1.024 1.024 1.536 8.192 1.536 10.24zM515.072 200.704c107.008 0 194.048 87.04 194.048 194.048v299.008c0 107.008-87.04 194.048-194.048 194.048s-194.048-87.04-194.048-194.048v-299.008c0-107.008 87.04-194.048 194.048-194.048z"  horiz-adv-x="1024" />

    
    <glyph glyph-name="hunlicehua" unicode="&#59300;" d="M660.396795 305.943226L508.705977 162.743804c-3.572362-3.473101-9.251711-3.473101-12.91617-0.091075L343.091032 306.217473c-22.900569-32.349779-36.640502-72.01108-36.640501-114.962312 0-109.113093 87.478354-197.482747 195.201797-197.482747 107.814518 0 195.1097 88.36863 195.109699 197.482747 0 42.768059-13.556761 82.338287-36.365232 114.688065z m-271.687796 166.045757H265.413905L491.393683 201.673441 388.708999 471.988983z m469.270827 20.561292L720.853725 362.966964c36.365232-47.520293 58.166771-107.011222 58.166771-171.802877 0-155.080008-124.210953-280.733822-277.367145-280.733823s-277.367145 125.744889-277.367145 280.733823c0 64.88273 21.800515 124.374682 58.349943 171.894975L145.233756 492.277052c-4.305049 4.02057-4.030803 10.874675 0.458441 14.438851l237.42955 190.719716a15.699564 15.699564 0 0 0 10.076497 3.655249h217.918171c3.664459 0 7.236821-1.279133 10.076496-3.473101L857.248162 509.365242c5.219885-4.294816 5.586229-12.153808 0.731664-16.814967z m73.555249 199.401446l-39.57125-74.387198-39.480177 74.387198-73.464175 39.935547 73.464175 40.117697 39.480177 74.296123 39.57125-74.387198 73.372078-40.117696-73.372078-39.844473z"  horiz-adv-x="1024" />

    
    <glyph glyph-name="siyizhuchi" unicode="&#59302;" d="M533.125133 189.767274L837.242526-29.918147s43.445488-40.699957 86.890975 2.73325c43.445488 43.434232 0 84.957951 0 84.957951l-217.227439 305.554114-86.890976-86.780459-86.889953-86.779435z m43.445488 477.292523c-47.746444 60.442604-90.671069 86.780459-173.73795 86.780459-143.978159 0-260.672928-116.54639-260.672927-260.341376 0-82.962503 26.327622-125.874849 86.846973-173.560918l347.563904 347.121835z m43.444465-43.390229L272.452205 276.547733c32.714076-14.753005 92.1477-43.390229 130.379443-43.39023 143.978159 0 260.672928 116.54639 260.672928 260.341377 0 38.183647-28.717042 97.497545-43.48949 130.170688z"  horiz-adv-x="1024" />

    
    <glyph glyph-name="women" unicode="&#58906;" d="M399.441664 192a258.56 258.56 0 0 1 56.832 25.6 40.96 40.96 0 0 1 14.08 13.312 76.8 76.8 0 0 1 5.12 17.408 35.072 35.072 0 0 0-1.536 14.592 21.504 21.504 0 0 1-3.328 9.728c-2.048 2.56-4.096 4.864-6.912 7.68a99.584 99.584 0 0 1-10.752 9.984 54.784 54.784 0 0 0-13.824 18.944c-3.584 8.448-6.912 16.896-9.728 25.6s-5.12 19.712-7.936 30.72a29.696 29.696 0 0 0-12.032 8.192 73.728 73.728 0 0 0-11.264 14.08 111.616 111.616 0 0 0-10.752 25.6 80.128 80.128 0 0 0-4.096 29.696 81.664 81.664 0 0 0 5.12 23.808 60.416 60.416 0 0 0 12.032 20.224 522.24 522.24 0 0 0 4.864 70.912 614.4 614.4 0 0 0 15.36 64 217.088 217.088 0 0 0 30.464 62.72 426.496 426.496 0 0 0 38.144 44.288 200.448 200.448 0 0 0 40.96 33.024c-4.096 12.8-7.168 25.6-9.728 34.304a80.128 80.128 0 0 1-16.384 31.744 207.104 207.104 0 0 1-153.6 67.328 292.608 292.608 0 0 1-41.472-3.328 172.544 172.544 0 0 1-42.24-11.776 179.2 179.2 0 0 1-40.96-23.808 157.952 157.952 0 0 1-36.608-39.424A186.368 186.368 0 0 1 161.873664 760.32a470.272 470.272 0 0 1-13.312-58.88 409.6 409.6 0 0 1-3.072-66.048 52.736 52.736 0 0 1-10.752-18.176 65.792 65.792 0 0 1-5.12-21.76 64 64 0 0 1 4.096-25.6 95.232 95.232 0 0 1 10.496-22.016 54.528 54.528 0 0 1 10.496-12.032 81.152 81.152 0 0 1 12.032-6.144c2.816-9.984 5.12-19.456 7.936-27.392s6.144-14.848 9.728-22.272a41.728 41.728 0 0 1 13.568-16.128c9.216-8.192 18.176-16.128 25.6-23.808a51.2 51.2 0 0 0 13.824-32.256v-24.064a58.88 58.88 0 0 0-4.096-21.76 64.768 64.768 0 0 0-13.568-20.992 218.112 218.112 0 0 0-28.16-22.272 199.68 199.68 0 0 0-52.992-22.272c-20.224-5.12-39.424-11.264-58.368-17.664a157.952 157.952 0 0 1-49.408-25.6 75.264 75.264 0 0 1-25.6-48.384A338.432 338.432 0 0 1 1.617664 112.64a74.496 74.496 0 0 1 13.568-42.752 80.64 80.64 0 0 1 29.44-9.984c15.616-3.328 35.072-6.4 57.6-9.984s47.616-6.4 74.496-9.216 53.504-5.12 80.128-7.168c0 1.536 1.536 2.56 2.048 3.584a16.384 16.384 0 0 0 2.048 3.584c0 6.144 0 12.544 1.536 19.712s0 14.08 2.56 21.76a92.416 92.416 0 0 0 25.6 56.32 168.704 168.704 0 0 0 48.64 32.256c20.736 7.168 39.68 14.336 60.16 21.248zM1023.313664 27.136a211.712 211.712 0 0 1-6.4 34.56 105.984 105.984 0 0 1-26.88 39.168 173.568 173.568 0 0 1-42.752 23.296 475.136 475.136 0 0 1-49.92 15.616 325.376 325.376 0 0 0-47.104 15.616 120.576 120.576 0 0 0-38.144 21.248 73.984 73.984 0 0 0-19.712 25.6 68.608 68.608 0 0 0-6.4 25.6 151.04 151.04 0 0 0 1.536 26.88 61.44 61.44 0 0 0 5.632 17.408 43.008 43.008 0 0 0 8.448 12.544 152.064 152.064 0 0 0 11.776 10.496 166.656 166.656 0 0 1 14.848 12.032 51.2 51.2 0 0 1 12.8 16.128 179.2 179.2 0 0 1 9.984 22.016c2.816 8.192 5.12 17.408 8.192 27.392a34.816 34.816 0 0 1 16.128 9.216 81.408 81.408 0 0 1 12.032 17.408 85.504 85.504 0 0 1 7.936 29.44 56.832 56.832 0 0 1 0 23.808 75.008 75.008 0 0 1-5.632 15.616 49.664 49.664 0 0 1-9.216 10.752 359.68 359.68 0 0 1-4.096 68.864 522.24 522.24 0 0 1-15.616 63.232 170.24 170.24 0 0 1-92.928 107.264 198.4 198.4 0 0 1-92.672 21.248 292.352 292.352 0 0 1-40.704-3.328 186.624 186.624 0 0 1-42.752-11.776 179.2 179.2 0 0 1-41.472-23.808A157.952 157.952 0 0 1 513.617664 663.04a183.296 183.296 0 0 1-26.88-57.6 532.224 532.224 0 0 1-12.544-59.648 460.8 460.8 0 0 1-3.072-66.048 66.56 66.56 0 0 1-10.752-18.176 62.464 62.464 0 0 1 0-47.872 80.384 80.384 0 0 1 10.496-22.272 54.272 54.272 0 0 1 10.496-12.032 85.248 85.248 0 0 1 12.032-6.144c2.816-9.984 5.12-19.456 7.936-27.392s6.144-14.848 9.728-22.272a49.664 49.664 0 0 1 12.544-17.408q14.592-11.52 25.6-23.04a52.992 52.992 0 0 0 14.08-32.256v-25.6a49.408 49.408 0 0 0-4.352-21.248 83.2 83.2 0 0 0-14.08-20.224 185.856 185.856 0 0 0-27.648-22.016 167.68 167.68 0 0 0-53.248-23.04c-20.224-5.12-39.424-10.752-58.368-17.664a174.592 174.592 0 0 1-49.152-25.6 73.216 73.216 0 0 1-25.6-48.896 329.728 329.728 0 0 1-3.072-91.392 86.784 86.784 0 0 1 13.312-42.752 76.8 76.8 0 0 1 25.6-8.96c13.312-3.072 29.44-6.144 48.64-9.216s40.704-5.632 63.488-7.936l70.144-6.4 68.352-5.12c22.016 0 41.472-2.048 58.368-2.048s36.608 0 58.88 2.048l69.632 5.12c24.064 2.048 47.872 4.352 71.68 7.68s45.568 6.144 65.28 9.728a404.224 404.224 0 0 1 49.152 10.752 47.616 47.616 0 0 1 23.808 12.032 72.192 72.192 0 0 1 9.216 27.392 204.8 204.8 0 0 1 3.072 39.168 349.44 349.44 0 0 1-3.072 40.448z"  horiz-adv-x="1026" />

    
    <glyph glyph-name="glass" unicode="&#59023;" d="M727.146 867.74c-37.72 0-67.312-42.056-67.312-42.056S631.918 867.74 592.506 867.74c-38.336 0-69.644-31.622-71.692-69.904-1.154-21.628 5.818-38.088 15.642-52.998 19.63-29.784 105.45-101.49 123.506-101.49 18.426 0 103.482 71.444 123.242 101.49 9.844 14.976 16.798 31.366 15.636 52.998-2.046 38.284-33.354 69.904-71.694 69.904M431.49 867.74c-37.72 0-67.312-42.056-67.312-42.056S336.262 867.74 296.85 867.74c-38.336 0-69.644-31.622-71.692-69.904-1.154-21.628 5.818-38.088 15.642-52.998 19.63-29.784 105.45-101.49 123.502-101.49 18.426 0 103.482 71.444 123.242 101.49 9.844 14.976 16.798 31.366 15.636 52.998-2.044 38.284-33.352 69.904-71.69 69.904M512 48.402c-7.432 0-14.724 2.998-19.98 8.284a27.096 27.096 0 0 0-3.504 4.296 28.644 28.644 0 0 0-2.6 4.86 27.68 27.68 0 0 0-1.61 5.284 28.072 28.072 0 0 0-0.566 5.54c0 7.432 3.024 14.724 8.28 19.98 1.3 1.3 2.742 2.486 4.296 3.504a28.93 28.93 0 0 0 4.86 2.6c1.724 0.706 3.504 1.24 5.284 1.61a28 28 0 0 0 11.05 0c1.808-0.37 3.59-0.904 5.314-1.61 1.696-0.706 3.334-1.586 4.86-2.6a27.096 27.096 0 0 0 4.296-3.504 28.476 28.476 0 0 0 8.28-19.98c0-7.46-3.024-14.724-8.28-19.978-1.3-1.3-2.742-2.486-4.296-3.532-1.526-1.018-3.166-1.894-4.86-2.6a29.4 29.4 0 0 0-5.314-1.61c-1.808-0.372-3.674-0.544-5.51-0.544zM512 159.006c-156.082 0-282.61 126.526-282.61 282.61v163.996h565.218v-163.996c0-156.082-126.526-282.61-282.608-282.61zM588.304-71.478H540.26v63.808c0 15.606-12.652 28.26-28.26 28.26-15.608 0-28.26-12.656-28.26-28.26v-63.808h-48.044c-15.608 0-28.26-12.656-28.26-28.26s12.652-28.26 28.26-28.26h152.608c15.608 0 28.26 12.656 28.26 28.26s-12.652 28.26-28.26 28.26zM794.608 633.872h-91.052c9.594 6.536 21.264 15.328 35.578 27.212 24.29 20.166 54.824 48.68 67.684 68.234 9.526 14.49 21.986 37.51 20.244 70.028C824.16 853.546 780.272 896 727.144 896c-27.764 0-50.982-14.428-66.984-28.444C644.362 881.63 621.202 896 592.504 896c-32.892 0-62.23-16.286-80.506-41.55C493.724 879.714 464.386 896 431.49 896c-27.766 0-50.982-14.428-66.984-28.444C348.706 881.63 325.546 896 296.85 896c-53.124 0-97.012-42.454-99.914-96.66-1.738-32.588 10.734-55.586 20.266-70.05 12.754-19.356 43.452-47.886 67.926-68.138 14.402-11.918 26.124-20.73 35.744-27.278h-91.48c-15.608 0-28.26-12.656-28.26-28.26v-163.996c0-171.414 139.456-310.87 310.87-310.87s310.87 139.456 310.87 310.87v163.996c-0.002 15.606-12.656 28.258-28.264 28.258zM549.036 796.324c1.274 23.796 20.774 43.154 43.47 43.154 19.512 0 38.28-21.328 43.784-29.422 5.136-7.738 13.786-12.406 23.072-12.574 9.382-0.24 18.102 4.296 23.516 11.836 5.606 7.826 25.788 30.16 44.266 30.16 22.7 0 42.202-19.358 43.474-43.158 0.676-12.594-2.52-23.012-11.028-35.954-15.054-22.894-76.77-75.106-99.55-87.248-22.728 12.28-85.45 65.21-99.99 87.266-8.496 12.904-11.69 23.318-11.014 35.94zM264.394 760.392c-8.498 12.896-11.692 23.31-11.016 35.934 1.274 23.792 20.774 43.152 43.47 43.152 19.416 0 38.656-21.882 43.782-29.422a28.254 28.254 0 0 1 23.16-12.63c9.388-0.19 18.126 4.36 23.496 11.994 6.628 9.416 26.958 30.058 44.202 30.058 22.7 0 42.202-19.358 43.474-43.158 0.676-12.594-2.52-23.01-11.03-35.956-15.052-22.892-76.768-75.1-99.55-87.244-22.726 12.28-85.448 65.21-99.988 87.272z m179.082-99.308c24.29 20.166 54.826 48.68 67.684 68.234 0.274 0.418 0.56 0.87 0.84 1.3 0.286-0.44 0.576-0.898 0.86-1.328 12.758-19.356 43.452-47.888 67.926-68.138 14.402-11.918 26.124-20.73 35.744-27.278H407.9c9.594 6.534 21.264 15.326 35.576 27.21z m322.872-219.468c0-140.248-114.1-254.348-254.348-254.348s-254.348 114.1-254.348 254.348v20.014h314.6c15.608 0 28.26 12.656 28.26 28.26 0 15.606-12.652 28.26-28.26 28.26h-314.6v59.198h508.696v-135.732zM656.582 461.636c-1.836 0-3.702 0.196-5.54 0.562-1.78 0.34-3.56 0.904-5.284 1.61a28.434 28.434 0 0 0-4.86 2.572 28.906 28.906 0 0 0-4.296 3.532 28.906 28.906 0 0 0-3.532 4.296 28.53 28.53 0 0 0-2.6 4.864 29.74 29.74 0 0 0-1.61 5.284 28.23 28.23 0 0 0-0.536 5.54 27.886 27.886 0 0 0 2.146 10.792 27.82 27.82 0 0 0 6.132 9.186c1.3 1.3 2.742 2.486 4.296 3.504a28.644 28.644 0 0 0 4.86 2.6 29.84 29.84 0 0 0 5.284 1.61c9.184 1.866 18.934-1.158 25.52-7.716 1.3-1.3 2.486-2.742 3.504-4.296a27.82 27.82 0 0 0 2.6-4.89c0.706-1.696 1.244-3.474 1.61-5.284 0.368-1.808 0.566-3.674 0.566-5.508 0-1.836-0.198-3.706-0.566-5.54a29.804 29.804 0 0 0-1.61-5.284 28.53 28.53 0 0 0-2.6-4.864 27.096 27.096 0 0 0-3.504-4.296c-1.3-1.3-2.742-2.486-4.296-3.532-1.526-1.018-3.166-1.866-4.89-2.572-1.696-0.706-3.476-1.272-5.284-1.61-1.808-0.366-3.672-0.56-5.51-0.56z"  horiz-adv-x="1024" />

    
    <glyph glyph-name="fangdajing1" unicode="&#58890;" d="M507.847111-11.889778c-90.709333 0-177.607111 27.761778-251.249778 80.241778a28.444444 28.444444 0 0 0 33.024 46.336 373.788444 373.788444 0 0 1 218.225778-69.688889c207.502222 0 376.32 168.846222 376.32 376.32s-168.817778 376.32-376.32 376.32c-207.502222 0-376.32-168.817778-376.32-376.32 0-54.584889 11.406222-107.235556 33.934222-156.444444a28.444444 28.444444 0 1 0-51.712-23.665778 429.909333 429.909333 0 0 0-39.111111 180.110222c0 238.876444 194.332444 433.208889 433.208889 433.208889s433.208889-194.332444 433.208889-433.208889-194.332444-433.208889-433.208889-433.208889zM933.774222-94.663111a28.359111 28.359111 0 0 0-20.110222 8.334222l-160.881778 160.881778a28.416 28.416 0 1 0 40.220445 40.220444l160.881777-160.881777a28.416 28.416 0 0 0-20.110222-48.554667z"  horiz-adv-x="1024" />

    
    <glyph glyph-name="jiubei1" unicode="&#58625;" d="M817.057 611.435c0 61.426-18.692 150.881-54.475 202.934-2.522 3.707-6.747 5.881-11.211 5.881h-490.215c-4.464 0-8.656-2.172-11.212-5.881-35.782-52.14-54.475-141.551-54.475-202.934 0-161.753 126.259-341.583 297.213-350.835v-228.919h-109.052c-31.147 0-54.525-23.429-54.525-54.526v-15.675c0-7.498 6.083-13.632 13.632-13.632h327.15c7.532 0 13.632 6.133 13.632 13.632v13.632c0 31.778-23.99 56.57-54.525 56.57h-109.049v228.921c170.902 9.251 297.111 189.082 297.111 350.834zM656.207-24.89h-299.888v2.044c0 16.103 11.195 27.263 27.313 27.263h245.313c15.557 0 27.262-12.574 27.262-29.307zM268.517 793.029h475.441c28.711-46.133 44.471-121.872 45.58-175.239-23.004 5.315-47.54 8.418-75.484 8.418-86.182 0-129.753-25.082-171.891-49.361-40.791-23.566-79.402-45.75-158.243-45.75s-117.348 22.185-158.174 45.75l-0.801 0.46c-1.363 11.418-2.301 22.799-2.301 34.044 0.036 53.588 16.053 133.756 45.872 181.679zM231.167 542.511c36.974-20.413 79.401-38.644 152.807-38.644 86.115 0 129.701 25.099 171.874 49.379 40.809 23.515 79.316 45.75 158.208 45.75 27.943 0 52.343-2.982 74.666-8.69-10.769-144.832-130.214-303.295-282.405-303.295-135.632-0.085-245.125 125.748-275.149 255.5z"  horiz-adv-x="1024" />

    
    <glyph glyph-name="home" unicode="&#58938;" d="M949.128 468.555l-378.768 299.416c-32.608 25.862-83.689 25.862-116.297 0l-378.606-299.416c-13.011-10.28-15.099-29.074-4.979-41.925s28.592-15.099 41.604-4.979l11.726 9.637v-361.901c0-51.241 54.133-89.632 101.518-89.632h597.546c46.904 0 77.746 35.981 77.746 89.632v360.616l10.923-8.353c5.461-4.337 12.208-6.425 18.794-6.425 8.834 0 17.669 3.855 23.613 11.405 10.279 12.852 8.192 31.646-4.82 41.926zM482.335 39.51v165.772c0 8.193 14.938 12.369 29.877 12.369 14.938 0 29.877-4.176 29.877-12.369v-165.61l-59.755-0.162zM841.024 69.388c0-19.758-5.461-29.877-17.991-29.877h-220.546c0 0.482-0.643 0.803-0.643 1.285v164.486c0 34.696-27.95 72.124-89.632 72.124s-89.632-37.427-89.632-72.124v-164.486c0-0.482 0.803-0.803 0.803-1.285h-197.897c-18.794 0-41.764 16.223-41.764 29.877v409.288l306.965 242.392c11.083 8.675 31.002 8.675 41.925 0l308.252-243.837v-407.842h0.161z"  horiz-adv-x="1024" />

    
    <glyph glyph-name="women1" unicode="&#58917;" d="M874.091 275.08c-31.38 45.247-73.707 79.303-122.967 98.886 21.771 15.325 40.016 35.637 53.152 59.476 15.325 27.489 23.353 58.99 23.353 90.858 0 99.614-77.114 180.741-171.985 180.741-13.5 0-24.447-10.946-24.447-24.447s10.946-24.448 24.447-24.448c67.87 0 123.09-59.112 123.09-131.846 0-72.735-55.22-131.847-123.09-131.847-13.5 0-24.447-10.946-24.447-24.447v-0.122c0-13.5 10.946-24.447 24.447-24.447 122.116 0 221.366-105.94 221.366-236.084 0-13.5 10.947-24.447 24.448-24.447 13.5 0 24.447 10.946 24.447 24.447 0.122 60.694-17.88 118.71-51.814 167.728z m-252.503 41.476c-25.664 18.123-53.517 32.475-83.073 42.692 62.274 37.827 100.588 105.21 100.588 178.431 0 115.183-93.655 208.838-208.838 208.838-115.184 0-208.839-93.655-208.839-208.838 0-39.165 10.947-77.478 31.746-110.561 17.514-27.975 41.476-51.45 69.694-68.478a327.742 327.742 0 0 1-84.411-43.178c-28.34-20.07-53.274-44.395-74.194-72.127-43.3-57.652-66.167-126.495-66.167-198.743 0-13.5 10.947-24.447 24.448-24.447 13.5 0 24.447 10.947 24.447 24.447 0 75.41 29.435 146.32 82.708 199.96 53.274 53.395 123.698 82.951 198.378 82.951 2.433-0.243 4.987 0 7.42 0.487l1.946 0.486c72.734-1.46 141.09-30.772 193.026-82.951 53.395-53.517 82.708-124.55 82.708-199.96 0-13.5 10.947-24.447 24.448-24.447 13.5 0 24.447 10.947 24.447 24.448 0 72.248-22.866 140.968-66.288 198.742-20.799 27.854-45.854 52.18-74.194 72.248zM430.386 697.622c88.182 0 159.943-71.761 159.943-159.943 0-88.181-71.761-159.943-159.943-159.943-88.181 0-159.943 71.762-159.943 159.943 0 88.182 71.762 159.943 159.943 159.943z m0 0"  horiz-adv-x="1024" />

    
    <glyph glyph-name="explore" unicode="&#58886;" d="M1004.726 443.913c-43.682-70.357-117.693-181.424-135.908-209.492 0.128-34.923-5.673-193.339-4.351-276.621 0.355-22.722-6.313-43.269-23.945-56.422-0.071-0.071-0.156-0.128-0.242-0.199-18.556-13.722-43.099-18.016-65.622-11.447-1.578 0.469-3.313 0.981-4.934 1.45-5.418-2.815-11.717-3.839-17.945-2.062-74.708 21.613-197.42 60.915-236.566 73.528-31.353-9.157-99.947-29.121-163.223-47.023-29.875-9.029-59.266-17.803-83.766-24.855-11.276-3.256-21.229-4.579-29.946-4.579-18.897 0-32.008 6.271-40.496 12.698-17.817 13.508-27.429 35.847-28.581 66.361-3.256 85.785-5.773 228.248-6.37 263.355-3.512 5.275-9.029 13.551-15.911 23.917 0 0-74.864 106.033-74.864 106.033-3.114 4.408-4.124 9.399-4.209 14.361-16.693 25.737-32.889 51.033-46.198 72.404-14.020 22.481-17.93 48.488-10.721 71.324 4.124 13.082 12.001 24.244 22.324 33.401 2.431 6.484 7.266 11.93 14.106 14.532 35.065 13.195 81.505 29.775 124.632 44.919 48.914 18.457 94.956 35.591 117.181 43.824 23.945 33.046 99.307 136.69 147.013 199.482 7.11 9.37 14.305 16.395 21.286 21.613 2.801 2.090 5.531 3.612 8.261 5.162 12.655 10.565 28.367 16.423 44.904 16.423 0.1 0 0.199 0 0.313 0 23.064-0.1 45.288-11.347 59.451-30.102 50.549-66.816 134.358-182.078 154.691-210.104 31.624-11.802 161.118-60.176 237.49-90.363 31.993-12.627 44.393-33.557 49.142-48.9 0.697-2.204 0.81-4.522 1.28-6.768 0.711-1.664 2.204-3.086 2.36-4.891 2.446-27.642 3.1-38.861-10.636-60.958z"  horiz-adv-x="1024" />

    
    <glyph glyph-name="fangdajing2" unicode="&#58914;" d="M743.111128 152.387682a31.293036 31.293036 0 0 0-44.292645 0L512 339.190503a312.241221 312.241221 0 0 0-198.157901-70.62077C140.649712 268.569733 0.253931 408.965515 0.253931 582.157901 0.253931 755.350288 140.649712 895.746069 313.842099 895.746069 487.034485 895.746069 627.430267 755.350288 627.430267 582.157901c0-34.143552-5.88898-66.81486-16.053735-97.559719a30.948468 30.948468 0 0 0-3.649288-10.509323c-0.986717-2.678233-1.769826-5.450439-2.819192-8.097347l-1.769827 1.769827c-5.701034-5.967291-13.688745-9.710552-22.600525-9.710552a31.32436 31.32436 0 0 0-31.32436 31.32436l-0.28192 2.897503c0 8.238307 3.242071 15.677842 8.441915 21.269241l-2.913165 2.897503c5.810669 21.143943 9.162375 43.305928 9.162375 66.298008C563.622545 721.003127 451.528323 833.097349 313.262598 833.097349S62.902651 721.003127 62.902651 582.737402 174.996873 332.377455 313.262598 332.377455a249.498527 249.498527 0 0 1 175.823633 72.218312c0.187946 0.219271 0.313244 0.454203 0.454203 0.689136l45.342011-0.783109 107.755798-107.740137 0.203609 0.203609 100.269276-100.284939a31.32436 31.32436 0 0 0 0-44.292645z"  horiz-adv-x="1024" />

    
    <glyph glyph-name="shouye1" unicode="&#58892;" d="M928.2 330.1c-5.3 0-10.6 2-14.7 6.1L512 737.7 110.6 336.2c-8.1-8.1-21.3-8.1-29.4 0-8.1 8.1-8.1 21.3 0 29.4l416.2 416.2c8.1 8.1 21.3 8.1 29.4 0L943 365.6c8.1-8.1 8.1-21.3 0-29.4-4.2-4.1-9.5-6.1-14.8-6.1zM928.2 327.1c-6.4 0-12.3 2.5-16.8 7L512 733.4 112.7 334.1c-9.3-9.3-24.4-9.3-33.7 0-9.3 9.3-9.3 24.4 0 33.7L495.2 784c9.3 9.3 24.4 9.3 33.7 0L945 367.7c4.5-4.5 7-10.5 7-16.8s-2.5-12.3-7-16.8-10.5-7-16.8-7zM512 741.9l2.1-2.1 401.5-401.5c3.4-3.4 7.8-5.2 12.6-5.2s9.2 1.9 12.6 5.2c3.4 3.4 5.2 7.8 5.2 12.6s-1.9 9.2-5.2 12.6L524.6 779.7c-6.9 6.9-18.2 6.9-25.2 0L83.3 363.5c-6.9-6.9-6.9-18.2 0-25.2 6.9-6.9 18.2-6.9 25.2 0L512 741.9zM928.2 321.1c-8 0-15.4 3.1-21.1 8.7L512 724.9 116.9 329.8c-11.6-11.6-30.5-11.6-42.2 0-11.6 11.6-11.6 30.5 0 42.2l416.2 416.2c11.6 11.6 30.5 11.6 42.2 0L949.3 372c5.6-5.6 8.7-13.1 8.7-21.1s-3.1-15.4-8.7-21.1c-5.7-5.6-13.1-8.7-21.1-8.7zM512 750.4l407.8-407.8c2.2-2.2 5.2-3.5 8.3-3.5 3.2 0 6.1 1.2 8.3 3.5 2.2 2.2 3.5 5.2 3.5 8.3s-1.2 6.1-3.5 8.3l-416 416.2c-4.6 4.6-12.1 4.6-16.7 0L87.5 359.3c-4.6-4.6-4.6-12.1 0-16.7s12.1-4.6 16.7 0L512 750.4zM928.2 318.1c-8.8 0-17 3.4-23.2 9.6l-393 393-393-393c-12.8-12.8-33.6-12.8-46.4 0-12.8 12.8-12.8 33.6 0 46.4l416.2 416.2c12.8 12.8 33.6 12.8 46.4 0l416.2-416.2c6.2-6.2 9.6-14.4 9.6-23.2 0-8.8-3.4-17-9.6-23.2-6.2-6.2-14.4-9.6-23.2-9.6zM512 729.2l2.1-2.1L909.2 332c5.1-5.1 11.8-7.9 19-7.9 7.2 0 13.9 2.8 19 7.9 5.1 5.1 7.9 11.8 7.9 19s-2.8 13.9-7.9 19L531 786c-10.5 10.4-27.5 10.4-37.9 0L76.9 369.9c-10.5-10.5-10.5-27.5 0-37.9 10.5-10.5 27.5-10.5 37.9 0L512 729.2z m416.2-393.1c-4 0-7.7 1.5-10.5 4.3L512 746.1 106.3 340.4c-5.8-5.8-15.2-5.8-20.9 0-5.8 5.8-5.8 15.2 0 20.9l416.2 416.2c5.8 5.8 15.2 5.8 20.9 0l416.2-416.2c2.8-2.8 4.3-6.5 4.3-10.5s-1.5-7.7-4.3-10.5c-2.8-2.7-6.6-4.2-10.5-4.2zM512 754.6l410-409.9c1.7-1.7 3.9-2.6 6.2-2.6 2.4 0 4.6 0.9 6.2 2.6 1.7 1.7 2.6 3.9 2.6 6.2s-0.9 4.6-2.6 6.2L518.2 773.3c-3.4 3.4-9 3.4-12.5 0L89.6 357.1c-3.4-3.4-3.4-9 0-12.5 3.4-3.4 9-3.4 12.5 0l409.9 410zM761.7-23.6H616.1c-11.5 0-20.8 9.3-20.8 20.8s9.3 20.8 20.8 20.8h145.7c22.9 0 41.6 18.7 41.6 41.6V288.5c0 11.5 9.3 20.8 20.8 20.8S845 300 845 288.5v-228.9c0-45.9-37.4-83.2-83.3-83.2z m-353.7 0H262.3c-45.9 0-83.2 37.3-83.2 83.2V455c0 11.5 9.3 20.8 20.8 20.8s20.8-9.3 20.8-20.8v-395.4c0-22.9 18.7-41.6 41.6-41.6h124.9V205.3c0 11.5 9.3 20.8 20.8 20.8h208.1c11.5 0 20.8-9.3 20.8-20.8s-9.3-20.8-20.8-20.8H428.8v-187.3c0-11.5-9.3-20.8-20.8-20.8zM761.7-26.6H616.1c-13.1 0-23.8 10.7-23.8 23.8S603 21 616.1 21h145.7c21.3 0 38.6 17.3 38.6 38.6V288.5c0 13.1 10.7 23.8 23.8 23.8s23.8-10.7 23.8-23.8v-228.9c0-47.6-38.7-86.2-86.3-86.2zM616.1 15c-9.8 0-17.8-8-17.8-17.8s8-17.8 17.8-17.8h145.7c44.2 0 80.2 36 80.2 80.2V288.5c0 9.8-8 17.8-17.8 17.8s-17.8-8-17.8-17.8v-228.9c0-24.6-20-44.6-44.6-44.6H616.1zM408-26.6H262.3c-47.5 0-86.2 38.7-86.2 86.2V455c0 13.1 10.7 23.8 23.8 23.8s23.8-10.7 23.8-23.8v-395.4c0-21.3 17.3-38.6 38.6-38.6h121.9V205.3c0 13.1 10.7 23.8 23.8 23.8h208.1c13.1 0 23.8-10.7 23.8-23.8s-10.7-23.8-23.8-23.8H431.8v-184.3c0-13.2-10.7-23.8-23.8-23.8zM199.9 472.8c-9.8 0-17.8-8-17.8-17.8v-395.4c0-44.2 36-80.2 80.2-80.2H408c9.8 0 17.8 8 17.8 17.8V187.4h190.3c9.8 0 17.8 8 17.8 17.8s-8 17.8-17.8 17.8H408c-9.8 0-17.8-8-17.8-17.8V15H262.3c-24.6 0-44.6 20-44.6 44.6V455c0 9.8-8 17.8-17.8 17.8zM761.7-32.6H616.1c-16.4 0-29.8 13.4-29.8 29.8s13.4 29.8 29.8 29.8h145.7c18 0 32.6 14.6 32.6 32.6V288.5c0 16.4 13.4 29.8 29.8 29.8s29.8-13.4 29.8-29.8v-228.9c0-50.9-41.4-92.2-92.3-92.2zM616.1 9c-6.5 0-11.8-5.3-11.8-11.8s5.3-11.8 11.8-11.8h145.7c40.9 0 74.2 33.3 74.2 74.2V288.5c0 6.5-5.3 11.8-11.8 11.8-6.5 0-11.8-5.3-11.8-11.8v-228.9c0-27.9-22.7-50.6-50.6-50.6H616.1zM408-32.6H262.3c-50.9 0-92.2 41.4-92.2 92.2V455c0 16.4 13.4 29.8 29.8 29.8s29.8-13.4 29.8-29.8v-395.4c0-18 14.6-32.6 32.6-32.6h115.9V205.3c0 16.4 13.4 29.8 29.8 29.8h208.1c16.4 0 29.8-13.4 29.8-29.8s-13.4-29.8-29.8-29.8H437.8v-178.3c0-16.5-13.4-29.8-29.8-29.8zM199.9 466.8c-6.5 0-11.8-5.3-11.8-11.8v-395.4c0-40.9 33.3-74.2 74.2-74.2H408c6.5 0 11.8 5.3 11.8 11.8V193.4h196.3c6.5 0 11.8 5.3 11.8 11.8 0 6.5-5.3 11.8-11.8 11.8H408c-6.5 0-11.8-5.3-11.8-11.8V9H262.3c-27.9 0-50.6 22.7-50.6 50.6V455c0 6.5-5.3 11.8-11.8 11.8zM761.7-35.6H616.1c-18.1 0-32.8 14.7-32.8 32.8S598 30 616.1 30h145.7c16.3 0 29.6 13.3 29.6 29.6V288.5c0 18.1 14.7 32.8 32.8 32.8 18.1 0 32.8-14.7 32.8-32.8v-228.9c0-52.5-42.8-95.2-95.3-95.2zM616.1 24c-14.8 0-26.8-12-26.8-26.8s12-26.8 26.8-26.8h145.7c49.2 0 89.2 40 89.2 89.2V288.5c0 14.8-12 26.8-26.8 26.8s-26.8-12-26.8-26.8v-228.9c0-19.6-16-35.6-35.6-35.6H616.1zM408-35.6H262.3c-52.5 0-95.2 42.7-95.2 95.2V455c0 18.1 14.7 32.8 32.8 32.8 18.1 0 32.8-14.7 32.8-32.8v-395.4c0-16.3 13.3-29.6 29.6-29.6h112.9V205.3c0 18.1 14.7 32.8 32.8 32.8h208.1c18.1 0 32.8-14.7 32.8-32.8 0-18.1-14.7-32.8-32.8-32.8H440.8v-175.3c0-18.1-14.7-32.8-32.8-32.8zM199.9 481.8c-14.8 0-26.8-12-26.8-26.8v-395.4c0-49.2 40-89.2 89.2-89.2H408c14.8 0 26.8 12 26.8 26.8V178.4h181.3c14.8 0 26.8 12 26.8 26.8s-12 26.8-26.8 26.8H408c-14.8 0-26.8-12-26.8-26.8V24H262.3c-19.6 0-35.6 16-35.6 35.6V455c0 14.7-12 26.8-26.8 26.8z m561.8-499.4H616.1c-8.2 0-14.8 6.6-14.8 14.8 0 8.2 6.6 14.8 14.8 14.8h145.7c26.3 0 47.6 21.4 47.6 47.6V288.5c0 8.2 6.6 14.8 14.8 14.8s14.8-6.6 14.8-14.8v-228.9c0-42.6-34.7-77.2-77.3-77.2zM616.1 6c-4.9 0-8.8-4-8.8-8.8s4-8.8 8.8-8.8h145.7c39.3 0 71.2 32 71.2 71.2V288.5c0 4.9-4 8.8-8.8 8.8-4.9 0-8.8-4-8.8-8.8v-228.9c0-29.6-24.1-53.6-53.6-53.6H616.1zM408-17.6H262.3c-42.6 0-77.2 34.6-77.2 77.2V455c0 8.2 6.6 14.8 14.8 14.8 8.2 0 14.8-6.6 14.8-14.8v-395.4c0-26.3 21.4-47.6 47.6-47.6h130.9V205.3c0 8.2 6.6 14.8 14.8 14.8h208.1c8.2 0 14.8-6.6 14.8-14.8s-6.6-14.8-14.8-14.8H422.8v-193.3c0-8.2-6.7-14.8-14.8-14.8zM199.9 463.8c-4.9 0-8.8-4-8.8-8.8v-395.4c0-39.3 32-71.2 71.2-71.2H408c4.9 0 8.8 4 8.8 8.8V196.4h199.3c4.9 0 8.8 4 8.8 8.8 0 4.9-4 8.8-8.8 8.8H408c-4.9 0-8.8-4-8.8-8.8V6H262.3c-29.6 0-53.6 24.1-53.6 53.6V455c0 4.8-4 8.8-8.8 8.8z"  horiz-adv-x="1024" />

    
    <glyph glyph-name="fangdajing3" unicode="&#58897;" d="M734.778626 187.277354l-93.801527 93.801526c-10.422392 10.422392-28.661578 13.02799-44.295165 5.211196l-18.239186 18.239186c28.661578 33.872774 41.689567 78.167939 41.689568 122.463104 0 80.773537-49.506361 153.73028-122.463105 184.997456-75.562341 31.267176-158.941476 13.02799-216.264631-44.295166-57.323155-57.323155-72.956743-143.307888-44.295165-216.264631s104.223919-122.463104 184.997455-122.463104c44.295165 0 88.590331 15.633588 122.463105 41.689568l18.239185-18.239186c-7.816794-13.02799-5.211196-31.267176 5.211196-44.295166l93.801527-93.801526c15.633588-15.633588 39.083969-15.633588 52.111959 0l18.239186 18.239185c18.239186 15.633588 18.239186 39.083969 2.605598 54.717558z m-310.066158 78.167939c-88.590331 0-161.547074 72.956743-161.547074 161.547073 0 88.590331 72.956743 161.547074 161.547074 161.547074 88.590331 0 161.547074-72.956743 161.547074-161.547074 0-88.590331-72.956743-161.547074-161.547074-161.547073z"  horiz-adv-x="1024" />

    
    <glyph glyph-name="biaoqing_zuichun" unicode="&#59084;" d="M773.512 490.877s-125.306 147.286-257.657-0.282C383.54 638.15 258.2 490.877 258.2 490.877c-65.16-66.175-134.022-118.24-134.022-118.24 11.831-7.901 62.766-49.444 62.766-49.444 77.442-69.732 161.882-114.289 161.882-114.289 77.893-40.64 167.075-35.56 167.075-35.56s89.182-5.068 167.075 35.56c0 0 84.44 44.569 161.882 114.289 0 0 50.936 41.599 62.766 49.445-0.101 0-68.963 52.064-134.111 118.24zM335.222 506.659c0.79 2.134-1.038-2.642-0.146-0.316m40.041 25.693c-1.93 7.18-11.695 7.496-17.407 6.13a130.635 130.635 0 0 1-34.036-13.546c-10.16-5.86-27.387-20.433-12.88-31.835 11.774-9.257 28.526-0.203 38.325 7.665 5.046 4.053 9.72 8.568 14.337 13.095 1.535 1.502 3.07 3.014 4.594 4.516 0.294 0.158 0.757 0.654 0.982 0.812a11.673 11.673 0 0 1 4.448 5.735 8.455 8.455 0 0 1 1.648 7.372m219.275-299.674c39.51-6.976 85.344 12.576 108.949 44.783 4.64 6.344-3.985 9.799-9.031 9.98-7.587 0.282-17.035-2.699-21.698-9.032a73.942 73.942 0 0 0-27.375-22.115q-2.258-1.06-4.64-2.009c-0.576-0.237-4.854-1.772-2.02-0.824-1.84-0.61-3.715-1.129-5.645-1.637-0.677-0.18-6.152-1.23-2.788-0.689a86.75 86.75 0 0 0-4.82-0.666c-0.102 0-5.013-0.237-2.258-0.192q-2.36 0-4.72 0.09-2.63 0.25-0.947 0-1.524 0.204-3.037 0.497c-7.812 1.378-17.362-0.722-23.266-6.231-4.888-4.516-3.895-10.702 3.206-11.955M906.11 373.326a866.765 866.765 0 0 1-14.167 3.556c-37.456 11.38-206.834 59.018-312.486 39.58 0 0-37.717-6.21-55.858-14.326 0 0-5.723-3.116-10.498-3.477-4.776 0.35-10.499 3.477-10.499 3.477-18.141 8.116-55.857 14.325-55.857 14.325-104.862 19.293-272.355-28.324-311.482-40.166-3.387-0.835-5.836-2.122-9.257-3.025l-1.829-0.655s207.512 46.24 323.516-13.964c0 0 38.066-18.615 68.083-17.904 30.017-0.711 68.083 17.904 68.083 17.904 116.004 60.158 323.651 13.93 323.651 13.93z m-747.321 7.97M896.662 375.742c-35.718 8.873-184.28 43.27-297.845 34.838a265.175 265.175 0 0 1-54.096-11.955s-5.272-1.998-11.21-4.922a43.485 43.485 0 0 0-16.933-4.425v-0.102h-1.558v0.102a43.485 43.485 0 0 0-16.934 4.425c-5.937 2.935-11.21 4.922-11.21 4.922a265.13 265.13 0 0 1-54.13 11.955c-123.748 9.177-288.994-32.512-304.527-36.542-1.332-0.497-2.72-0.915-4.042-1.423h0.542c139.17 37.14 233.894 25.66 285.947 11.492 2.46-0.79 21.9-7.157 36.53-13.93 13.547-6.774 38.63-17.927 62.518-20.546 2.032-0.293 4.166-0.158 6.243-0.361 2.066 0.192 4.21 0.068 6.242 0.361 23.888 2.62 49.028 13.761 62.518 20.546 14.676 6.773 34.07 13.129 36.53 13.93 52.054 14.168 147.14 25.649 286.309-11.492-3.534 1.355-7.237 1.829-10.849 3.105"  horiz-adv-x="1024" />

    
    <glyph glyph-name="jiubei2" unicode="&#58889;" d="M716.373-58.879999999999995c8-1.38667 14.08-8.42667 14.08-16.7467 0-9.38663-7.68-17.0667-17.0667-17.0667H312.64c-9.38663 0-17.0667 7.68-17.0667 17.0667 0 8.74667 6.72 16.1067 15.36 16.96l168.853 25.6V249.813C357.547 266.55999999999994 271.573 373.33299999999997 250.773 452.053c-18.1333 68.6933 67.52 409.92 67.52 409.92l194.133-0.426667 194.133 0.426667s85.6533-341.227 67.52-409.92c-20.6933-78.2933-105.6-184.107-226.773-201.92v-282.453l169.067-26.56ZM308.16 584.213c-9.06667-53.3333-14.4-100.907-9.06667-120.747 18.6667-70.4 100.267-168.107 213.333-168.213 112.96 0.106667 194.667 97.8131 213.333 168.213 5.22667 19.84 0 67.4133-9.06667 120.747h-408.533ZM519.68 375.14700000000004m-34.56 0a34.56 34.56 0 1 1 69.12 0 34.56 34.56 0 1 1-69.12 0ZM430.507 472.32m-27.7333 0a27.7333 27.7333 0 1 1 55.4667 0 27.7333 27.7333 0 1 1-55.4667 0ZM554.24 516.48m-26.1333 0a26.1333 26.1333 0 1 1 52.2667 0 26.1333 26.1333 0 1 1-52.2667 0ZM720.96 556.8c-1.28 8.85333-2.77333 18.0267-4.37333 27.4133H308.16c-1.6-9.38663-3.09333-18.4533-4.37333-27.4133h417.173Z"  horiz-adv-x="1024" />

    
    <glyph glyph-name="cehua" unicode="&#59085;" d="M232 896h507.2c32 0 59.2-12.8 80-33.6 20.8-20.8 33.6-49.6 33.6-80v-241.6l-48-48V782.4c0 17.6-8 33.6-20.8 46.4-11.2 11.2-27.2 19.2-46.4 19.2H296l70.4-60.8c9.6-8 11.2-24 3.2-33.6L124.8 460.8v-446.4c0-17.6 8-35.2 19.2-46.4s28.8-19.2 46.4-19.2H336l-17.6-48h-128c-32 0-59.2 12.8-80 33.6-20.8 20.8-33.6 49.6-33.6 80V470.4c0 3.2 0 6.4 1.6 9.6L208 880c0 1.6 1.6 3.2 1.6 4.8 1.6 1.6 3.2 4.8 4.8 4.8 1.6 1.6 4.8 3.2 6.4 3.2h1.6c6.4 3.2 8 3.2 9.6 3.2z m-11.2-656v-38.4h249.6V240H220.8z m0 104v-38.4h249.6v38.4H220.8z m0 97.6v-38.4h500.8v38.4H220.8z m257.6 120v-38.4H720v38.4H478.4z m0 105.6v-38.4H720v38.4H478.4z m0 97.6v-38.4H720V764.8H478.4z m352-321.6L440 54.4l116.8-116.8 388.8 388.8-115.2 116.8zM425.6 36.8l-44.8-126.4 36.8-36.8 121.6 48-113.6 115.2z m427.2 115.2l-48-48v-89.6c0-17.6-8-35.2-19.2-46.4-11.2-12.8-28.8-19.2-46.4-19.2h-91.2l-28.8-27.2 20.8-20.8h99.2c32 0 59.2 12.8 80 33.6 20.8 20.8 33.6 49.6 33.6 80v137.6zM161.6 580.8l155.2 185.6-73.6 64-81.6-249.6z"  horiz-adv-x="1024" />

    
    <glyph glyph-name="cehuazhongxin" unicode="&#58940;" d="M512 478.4c-107.2 0-195.2 88-195.2 195.2 0 107.2 88 195.2 195.2 195.2 107.2 0 195.2-88 195.2-195.2 0-107.2-88-195.2-195.2-195.2z m0 352c-86.4 0-156.8-70.4-156.8-156.8s70.4-156.8 156.8-156.8 156.8 70.4 156.8 156.8-70.4 156.8-156.8 156.8z m316.8-908.8c-107.2 0-195.2 88-195.2 195.2 0 107.2 88 195.2 195.2 195.2S1024 225.6 1024 116.8s-88-195.2-195.2-195.2z m0 353.6c-86.4 0-156.8-70.4-156.8-156.8s70.4-156.8 156.8-156.8 156.8 70.4 156.8 156.8-70.4 155.2-156.8 156.8zM195.2-78.4C88-78.4 0 9.6 0 116.8 0 224 88 312 195.2 312c107.2 0 195.2-88 195.2-195.2s-88-195.2-195.2-195.2z m0 353.6c-86.4 0-156.8-70.4-156.8-156.8s70.4-156.8 156.8-156.8S352 32 352 118.4s-70.4 155.2-156.8 156.8zM139.2 320c-11.2 0-19.2 8-19.2 19.2v3.2C134.4 448 192 544 278.4 606.4c8 6.4 20.8 4.8 27.2-4.8 6.4-8 4.8-20.8-4.8-27.2-78.4-56-129.6-142.4-142.4-238.4-1.6-9.6-9.6-16-19.2-16z m745.6 0c-9.6 0-17.6 6.4-19.2 16-12.8 96-64 182.4-142.4 238.4-8 6.4-9.6 17.6-3.2 27.2 6.4 8 17.6 9.6 25.6 4.8 86.4-62.4 144-158.4 158.4-264 1.6-11.2-6.4-19.2-16-20.8-1.6-1.6-3.2-1.6-3.2-1.6zM512-99.2c-51.2 0-100.8 9.6-148.8 28.8-9.6 3.2-14.4 14.4-9.6 24 4.8 9.6 14.4 14.4 25.6 11.2 89.6-36.8 190.4-35.2 278.4 4.8 9.6 4.8 20.8 0 25.6-9.6 4.8-9.6 0-20.8-9.6-25.6-51.2-22.4-105.6-33.6-161.6-33.6z"  horiz-adv-x="1024" />

    
    <glyph glyph-name="che1-copy1" unicode="&#58626;" d="M236.033435 229.55034899999998c-52.684061 0-95.551133-42.85504-95.551133-95.52768 0-52.691059 42.867073-95.547123 95.551133-95.547123s95.551133 42.856064 95.551133 95.547123C331.584568 186.69530899999995 288.717496 229.55034899999998 236.033435 229.55034899999998zM1001.54772 167.675116l-4.704336 23.592324c-2.571676 13.876032-9.009566 17.692964-17.489037 21.773909l-81.030832 0c16.693895-21.978571 26.704296-49.303916 26.704296-79.017658 0-6.836709-0.682574-13.508665-1.693643-20.059871l36.479327 0C996.609037 113.96279700000002 1006.313457 133.28895799999998 1001.54772 167.675116zM793.913247 229.55034899999998c-52.672804 0-95.551133-42.85504-95.551133-95.52768 0-52.691059 42.877306-95.547123 95.551133-95.547123 52.705551 0 95.55318 42.856064 95.55318 95.547123C889.466427 186.69530899999995 846.617775 229.55034899999998 793.913247 229.55034899999998zM162.911045 242.65173800000002c16.914938 11.407817 36.604176 18.935258 57.875511 21.411659l31.970451 0 0-0.147356c20.683933-2.653433 39.847169-10.141988 56.356861-21.264303l127.439716 0 284.001903 0c20.929537 14.162558 46.173514 22.449291 73.356737 22.449291 27.184247 0 52.43948-8.28571 73.378227-22.449291l99.112389 0-10.938579 60.957327c-8.959422 37.038568-27.62224 47.52848-77.734625 54.16155-67.184918 8.918114-181.889055 26.100448-181.889055 26.100448-54.459572 40.488133-100.469349 83.365686-183.256249 90.75191l-5.387933 10.815323c-0.520885 1.062192-9.643019 25.244964-39.367218 25.244964L281.170296 510.683261c-29.442778 0-36.964395-16.631796-40.1071-23.396873-2.586003-5.570879-5.540412-11.990079-5.540412-11.990079-87.235398-8.224312-176.6229-95.812159-176.603456-135.586025l0.224113-97.057523L162.911045 242.65276100000005zM878.444957 316.58765800000003c3.122238 0 34.653672 0 50.519677 0 2.81728-4.551666 4.571301-9.998725 6.204566-16.672728l6.449146-35.917024-25.367802 0c-19.21338 0-27.969156 5.102205-36.152879 19.693528l-8.958398 17.998933C865.6797 312.83314700000005 874.240015 316.58765800000003 878.444957 316.58765800000003zM652.648084 373.443573L436.554607 373.443573l-21.806547 0 0 0.230244L294.139199 373.673817l46.60946 73.399707 132.633213-0.061398C557.167561 447.012126 594.096139 419.032888 652.648084 373.443573zM259.870306 478.552469c2.514369 5.417383 5.290715 11.396561 21.299989 11.396561l186.659908 0c12.893176 0 18.204358-7.817036 20.224449-12.478196l0.526001-1.164522 0.218997-0.438998c-48.617271 0-157.010413-0.019443-230.092893 0.164752L259.870306 478.552469zM246.93108 447.073524l52.489625-0.061398L252.801011 373.673817l-75.780028 0 0-0.230244-60.712235 0C133.655539 398.809287 191.982347 447.073524 246.93108 447.073524zM79.644194 316.58765800000003l36.102735 0c9.877366 0 17.90861-10.611685 8.540872-22.590508-4.193685-5.345752-24.428368-29.835516-24.428368-29.835516L79.522416 264.16163400000005 79.644194 316.58765800000003zM54.827977 213.04032700000005c-5.20373-7.427156-9.357505-15.508205-9.622552-30.611182l-0.122802-21.712511c0-29.712719 23.092897-34.18252 61.2454-44.773739-0.816633 5.91778-1.387661 11.93789-1.387661 18.080797 0 29.693276 9.877366 57.059554 26.520093 79.017658L54.827977 213.04134999999997zM340.504079 213.04032700000005c16.673428-21.958104 26.622428-49.303916 26.622428-79.017658 0-6.836709-0.683597-13.488199-1.683409-20.018939l299.082999-0.020466c-1.011069 6.551206-1.693643 13.202697-1.693643 20.039405 0 29.713742 10.010401 57.039087 26.683829 79.017658L340.504079 213.04032700000005z"  horiz-adv-x="1024" />

    
    <glyph glyph-name="women2" unicode="&#58959;" d="M874.091 275.081c-31.38 45.246-73.708 79.303-122.968 98.885 21.772 15.325 40.016 35.637 53.152 59.477 15.325 27.488 23.353 58.99 23.353 90.857 0 99.615-77.113 180.742-171.984 180.742-13.501 0-24.448-10.947-24.448-24.448s10.947-24.448 24.448-24.448c67.869 0 123.089-59.112 123.089-131.847s-55.22-131.847-123.089-131.847c-13.501 0-24.448-10.947-24.448-24.448v-0.122c0-13.501 10.947-24.448 24.448-24.448 122.116 0 221.366-105.939 221.366-236.083 0-13.501 10.947-24.448 24.448-24.448s24.448 10.947 24.448 24.448c0.122 60.693-17.88 118.711-51.814 167.727z m-252.503 41.475c-25.664 18.123-53.517 32.475-83.073 42.692 62.274 37.827 100.588 105.21 100.588 178.431 0 115.183-93.655 208.838-208.838 208.838s-208.838-93.655-208.838-208.838c0-39.165 10.947-77.478 31.745-110.561 17.515-27.975 41.476-51.449 69.694-68.477a327.734 327.734 0 0 1-84.411-43.179c-28.34-20.069-53.274-44.395-74.194-72.126-43.3-57.652-66.167-126.495-66.167-198.743 0-13.501 10.947-24.448 24.448-24.448s24.448 10.947 24.448 24.448c0 75.41 29.434 146.32 82.708 199.959 53.274 53.395 123.697 82.951 198.378 82.951 2.433-0.243 4.987 0 7.419 0.487l1.946 0.487c72.735-1.46 141.09-30.772 193.026-82.951 53.395-53.517 82.708-124.549 82.708-199.959 0-13.501 10.947-24.448 24.448-24.448s24.448 10.947 24.448 24.448c0 72.248-22.866 140.969-66.288 198.743-20.799 27.853-45.854 52.179-74.194 72.248zM430.386 697.622c88.181 0 159.943-71.761 159.943-159.943s-71.761-159.943-159.943-159.943c-88.181 0-159.943 71.761-159.943 159.943s71.761 159.943 159.943 159.943z"  horiz-adv-x="1024" />

    
    <glyph glyph-name="nvxingzuichun1" unicode="&#58891;" d="M216.405333 432.583111s60.529778-15.132444 147.569778 128.682667c0 0 77.596444 103.992889 147.569778-24.576 0 0 37.888 73.841778 94.549333 64.284444 0 0 32.199111 5.688889 79.416889-68.152889 0 0 60.074667-103.082667 126.748445-93.184 0 0-58.140444-204.231111-228.352-231.196444-0.113778 0-261.12-80.896-367.502223 224.142222zM450.901333 390.940444s53.020444 20.821333 124.814223 0c0 0 22.641778-15.132444-61.44-18.887111 0 0-72.817778-3.754667-63.374223 18.887111zM507.107556 181.703111c-21.390222 0-45.624889 2.048-71.224889 7.964445-48.355556 11.150222-91.704889 33.564444-128.682667 66.787555-45.738667 40.96-81.692444 98.417778-106.837333 170.666667-2.161778 6.144-1.251556 13.198222 3.299555 17.863111 4.551111 4.551111 10.467556 6.371556 16.611556 4.437333 4.551111-0.341333 55.296-1.251556 129.137778 120.832 0.227556 0.455111 0.568889 0.910222 0.910222 1.365334 1.479111 2.048 37.888 49.948444 87.722666 46.421333 27.306667-1.934222 52.110222-18.545778 73.841778-49.379556 18.090667 23.779556 51.086222 55.751111 94.890667 49.607111 12.515556 0.455111 48.014222-5.688889 93.184-76.003555 0.113778-0.227556 0.227556-0.455111 0.341333-0.568889 15.132444-25.827556 64.398222-91.591111 109.454222-84.878222 5.688889 0.910222 11.491556-1.251556 15.36-5.575111 3.868444-4.323556 5.233778-10.353778 3.640889-15.928889-0.568889-2.161778-15.701333-54.272-52.565333-110.250667-21.845333-33.109333-46.762667-60.871111-74.296889-82.261333-34.474667-26.965333-72.931556-44.032-114.232889-50.744889-6.712889-2.275556-37.774222-10.353778-80.554666-10.353778zM240.184889 417.564444c42.552889-107.747556 110.592-173.169778 202.296889-194.56 73.386667-17.066667 135.736889 1.479111 136.305778 1.706667 0.796444 0.227556 1.592889 0.455111 2.389333 0.568889 65.422222 10.353778 121.173333 49.834667 165.888 117.418667 20.48 30.947556 33.905778 61.098667 41.301333 80.440889-25.258667 4.437333-50.972444 20.366222-76.913778 47.559111-23.210667 24.462222-38.570667 49.720889-40.504888 53.134222-36.864 57.344-61.098667 59.960889-63.146667 60.074667-1.479111-0.113778-3.072-0.113778-4.664889 0.113777-43.576889 7.281778-76.231111-54.727111-76.572444-55.296-2.958222-5.575111-8.647111-9.216-15.018667-9.216s-12.174222 3.299556-15.132445 8.874667c-19.114667 35.157333-39.594667 53.703111-60.757333 55.296-29.013333 2.161778-54.158222-27.761778-57.685333-32.199111-59.164444-97.507556-108.544-126.179556-137.784889-133.916445z m368.867555 166.570667z m0 0z"  horiz-adv-x="1024" />

    


  </font>
</defs>
</svg>
