<?xml version="1.0" encoding="utf-8"?>
<!-- Generator: Adobe Illustrator 15.0.0, SVG Export Plug-In . SVG Version: 6.00 Build 0)  -->
<!DOCTYPE svg PUBLIC "-//W3C//DTD SVG 1.1//EN" "http://www.w3.org/Graphics/SVG/1.1/DTD/svg11.dtd">
<svg version="1.1" id="图层_1" xmlns="http://www.w3.org/2000/svg" xmlns:xlink="http://www.w3.org/1999/xlink" x="0px" y="0px"
	 width="50px" height="50px" viewBox="0 0 50 50" enable-background="new 0 0 50 50" xml:space="preserve">
<rect fill="#F4F4F4" width="50" height="50"/>
<ellipse fill="none" stroke="#A70005" stroke-width="2" stroke-miterlimit="10" cx="25.164" cy="24.932" rx="23.878" ry="23.703"/>
<path fill="#A70005" d="M26.773,38.579l0.506-2.943l-2.137-2.083c-0.741-0.719-1.006-1.69-0.712-2.59
	c0.294-0.901,1.078-1.525,2.096-1.673l2.584-0.377c-0.111-0.076-0.212-0.152-0.306-0.235c-0.324-0.282-0.554-0.582-0.694-0.888
	c-0.142-0.307-0.225-0.625-0.242-0.931c-0.017-0.313,0-0.618,0.06-0.918c0.041-0.242,0.104-0.448,0.183-0.618
	c0.076-0.171,0.176-0.312,0.3-0.436c0.123-0.118,0.259-0.235,0.424-0.342c0.165-0.112,0.329-0.242,0.512-0.406
	c0.159-0.142,0.301-0.335,0.436-0.589c0.124-0.247,0.242-0.506,0.342-0.765c0.1-0.294,0.194-0.612,0.271-0.93
	c0.2-0.059,0.389-0.165,0.57-0.33c0.159-0.141,0.301-0.335,0.437-0.588c0.123-0.253,0.224-0.583,0.282-1.006
	c0.041-0.324,0.036-0.589-0.012-0.813c-0.047-0.224-0.117-0.4-0.194-0.542c-0.076-0.165-0.188-0.288-0.33-0.364
	c0.018-0.801-0.028-1.607-0.152-2.408c-0.095-0.683-0.271-1.407-0.524-2.178c-0.253-0.771-0.629-1.477-1.13-2.119
	c-0.224-0.282-0.513-0.56-0.876-0.83c-0.354-0.271-0.771-0.512-1.231-0.736c-0.465-0.223-0.959-0.4-1.489-0.542
	c-0.53-0.141-1.095-0.212-1.672-0.212c-0.465,0-0.942,0.048-1.431,0.124c-0.495,0.088-0.977,0.224-1.459,0.424
	c-0.482,0.2-0.959,0.477-1.431,0.83c-0.471,0.353-0.895,0.8-1.277,1.342c-0.401,0.577-0.707,1.23-0.918,1.955
	s-0.359,1.407-0.436,2.048c-0.106,0.765-0.141,1.531-0.124,2.29c-0.165,0.206-0.288,0.413-0.365,0.636
	c-0.083,0.2-0.135,0.436-0.165,0.707c-0.035,0.271,0,0.583,0.1,0.918c0.106,0.342,0.224,0.601,0.365,0.783
	c0.142,0.183,0.271,0.324,0.395,0.423c0.141,0.106,0.282,0.171,0.423,0.212c0.1,0.318,0.2,0.63,0.3,0.93
	c0.1,0.259,0.206,0.512,0.33,0.765c0.123,0.253,0.258,0.448,0.423,0.589c0.348,0.282,0.648,0.553,0.918,0.813
	c0.271,0.258,0.424,0.63,0.465,1.112c0.018,0.307,0.03,0.589,0.03,0.848c0,0.265-0.047,0.513-0.135,0.754
	c-0.089,0.241-0.253,0.482-0.483,0.724s-0.553,0.494-0.978,0.754c-0.517,0.342-1.124,0.601-1.819,0.782
	c-0.695,0.183-3.72,1.225-4.374,1.448c-0.647,0.218-1.219,0.519-1.701,0.9c-0.477,0.377-0.777,0.942-0.901,1.684
	c-0.2,1.284-0.241,1.49-0.135,2.313c0.106,0.818,0.271,1.307,0.495,1.472c0.183,0.136,0.701,0.301,1.565,0.494
	c0.865,0.195,6.305,1.219,12.621,1.219c0.825,0,1.619-0.018,2.384-0.053C26.721,39.15,26.727,38.867,26.773,38.579"/>
<path fill="#A70005" d="M39.265,31.327l-3.149-0.46c-0.482-0.069-1.054-0.482-1.271-0.924l-1.407-2.855
	c-0.105-0.217-0.254-0.329-0.395-0.329c-0.142,0-0.282,0.112-0.395,0.329l-1.407,2.855c-0.218,0.436-0.788,0.854-1.271,0.924
	l-3.148,0.46c-0.483,0.069-0.596,0.406-0.242,0.747l2.278,2.22c0.348,0.341,0.565,1.012,0.482,1.495l-0.535,3.138
	c-0.059,0.348,0.076,0.554,0.317,0.554c0.095,0,0.201-0.03,0.317-0.095l2.814-1.483c0.218-0.111,0.5-0.171,0.782-0.171
	c0.283,0,0.571,0.06,0.783,0.171l2.814,1.483c0.117,0.064,0.229,0.095,0.318,0.095c0.241,0,0.376-0.206,0.317-0.554l-0.536-3.138
	c-0.082-0.483,0.136-1.154,0.482-1.495l2.278-2.22C39.854,31.733,39.747,31.396,39.265,31.327"/>
</svg>
